<svg fill="#EEEEEE" width="400" height="300" viewBox="0 0 413 320" xmlns="http://www.w3.org/2000/svg">
    <circle cx="3" cy="3" r="3" fill="#EEEEEE"/>
    <circle cx="25" cy="3" r="3" fill="#EEEEEE"/>
    <circle cx="47" cy="3" r="3" fill="#EEEEEE"/>
    <circle cx="3" cy="25" r="3" fill="#EEEEEE"/>
    <circle cx="25" cy="25" r="3" fill="#EEEEEE"/>
    <circle cx="47" cy="25" r="3" fill="#EEEEEE"/>
    <circle cx="3" cy="47" r="3" fill="#EEEEEE"/>
    <circle cx="25" cy="47" r="3" fill="#EEEEEE"/>
    <circle cx="47" cy="47" r="3" fill="#EEEEEE"/>
    <circle cx="3" cy="69" r="3" fill="#EEEEEE"/>
    <circle cx="25" cy="69" r="3" fill="#EEEEEE"/>
    <circle cx="47" cy="69" r="3" fill="#EEEEEE"/>
    <circle cx="3" cy="91" r="3" fill="#EEEEEE"/>
    <circle cx="25" cy="91" r="3" fill="#EEEEEE"/>
    <circle cx="47" cy="91" r="3" fill="#EEEEEE"/>
    <circle cx="3" cy="113" r="3" fill="#EEEEEE"/>
    <circle cx="25" cy="113" r="3" fill="#EEEEEE"/>
    <circle cx="47" cy="113" r="3" fill="#EEEEEE"/>
    <circle cx="3" cy="135" r="3" fill="#EEEEEE"/>
    <circle cx="25" cy="135" r="3" fill="#EEEEEE"/>
    <circle cx="47" cy="135" r="3" fill="#EEEEEE"/>
    <circle cx="3" cy="157" r="3" fill="#EEEEEE"/>
    <circle cx="25" cy="157" r="3" fill="#EEEEEE"/>
    <circle cx="47" cy="157" r="3" fill="#EEEEEE"/>
    <circle cx="3" cy="179" r="3" fill="#EEEEEE"/>
    <circle cx="25" cy="179" r="3" fill="#EEEEEE"/>
    <circle cx="47" cy="179" r="3" fill="#EEEEEE"/>
    <circle cx="3" cy="201" r="3" fill="#EEEEEE"/>
    <circle cx="25" cy="201" r="3" fill="#EEEEEE"/>
    <circle cx="47" cy="201" r="3" fill="#EEEEEE"/>
    <circle cx="3" cy="223" r="3" fill="#EEEEEE"/>
    <circle cx="25" cy="223" r="3" fill="#EEEEEE"/>
    <circle cx="47" cy="223" r="3" fill="#EEEEEE"/>
    <circle cx="3" cy="245" r="3" fill="#EEEEEE"/>
    <circle cx="25" cy="245" r="3" fill="#EEEEEE"/>
    <circle cx="47" cy="245" r="3" fill="#EEEEEE"/>
    <circle cx="69" cy="245" r="3" fill="#EEEEEE"/>
    <circle cx="91" cy="245" r="3" fill="#EEEEEE"/>
    <circle cx="113" cy="245" r="3" fill="#EEEEEE"/>
    <circle cx="135" cy="245" r="3" fill="#EEEEEE"/>
    <circle cx="157" cy="245" r="3" fill="#EEEEEE"/>
    <circle cx="179" cy="245" r="3" fill="#EEEEEE"/>
    <circle cx="201" cy="245" r="3" fill="#EEEEEE"/>
    <circle cx="223" cy="245" r="3" fill="#EEEEEE"/>
    <circle cx="245" cy="245" r="3" fill="#EEEEEE"/>
    <circle cx="269" cy="245" r="3" fill="#EEEEEE"/>
    <circle cx="291" cy="245" r="3" fill="#EEEEEE"/>
    <circle cx="311" cy="245" r="3" fill="#EEEEEE"/>
    <circle cx="333" cy="245" r="3" fill="#EEEEEE"/>
    <circle cx="355" cy="245" r="3" fill="#EEEEEE"/>
    <circle cx="377" cy="245" r="3" fill="#EEEEEE"/>
    <circle cx="399" cy="245" r="3" fill="#EEEEEE"/>
    <circle cx="3" cy="267" r="3" fill="#EEEEEE"/>
    <circle cx="25" cy="267" r="3" fill="#EEEEEE"/>
    <circle cx="47" cy="267" r="3" fill="#EEEEEE"/>
    <circle cx="69" cy="267" r="3" fill="#EEEEEE"/>
    <circle cx="91" cy="267" r="3" fill="#EEEEEE"/>
    <circle cx="113" cy="267" r="3" fill="#EEEEEE"/>
    <circle cx="135" cy="267" r="3" fill="#EEEEEE"/>
    <circle cx="157" cy="267" r="3" fill="#EEEEEE"/>
    <circle cx="179" cy="267" r="3" fill="#EEEEEE"/>
    <circle cx="201" cy="267" r="3" fill="#EEEEEE"/>
    <circle cx="223" cy="267" r="3" fill="#EEEEEE"/>
    <circle cx="245" cy="267" r="3" fill="#EEEEEE"/>
    <circle cx="269" cy="267" r="3" fill="#EEEEEE"/>
    <circle cx="291" cy="267" r="3" fill="#EEEEEE"/>
    <circle cx="311" cy="267" r="3" fill="#EEEEEE"/>
    <circle cx="333" cy="267" r="3" fill="#EEEEEE"/>
    <circle cx="355" cy="267" r="3" fill="#EEEEEE"/>
    <circle cx="377" cy="267" r="3" fill="#EEEEEE"/>
    <circle cx="399" cy="267" r="3" fill="#EEEEEE"/>
    <circle cx="3" cy="289" r="3" fill="#EEEEEE"/>
    <circle cx="25" cy="289" r="3" fill="#EEEEEE"/>
    <circle cx="47" cy="289" r="3" fill="#EEEEEE"/>
    <circle cx="69" cy="289" r="3" fill="#EEEEEE"/>
    <circle cx="91" cy="289" r="3" fill="#EEEEEE"/>
    <circle cx="113" cy="289" r="3" fill="#EEEEEE"/>
    <circle cx="135" cy="289" r="3" fill="#EEEEEE"/>
    <circle cx="157" cy="289" r="3" fill="#EEEEEE"/>
    <circle cx="179" cy="289" r="3" fill="#EEEEEE"/>
    <circle cx="201" cy="289" r="3" fill="#EEEEEE"/>
    <circle cx="223" cy="289" r="3" fill="#EEEEEE"/>
    <circle cx="245" cy="289" r="3" fill="#EEEEEE"/>
    <circle cx="269" cy="289" r="3" fill="#EEEEEE"/>
    <circle cx="291" cy="289" r="3" fill="#EEEEEE"/>
    <circle cx="311" cy="289" r="3" fill="#EEEEEE"/>
    <circle cx="333" cy="289" r="3" fill="#EEEEEE"/>
    <circle cx="355" cy="289" r="3" fill="#EEEEEE"/>
    <circle cx="377" cy="289" r="3" fill="#EEEEEE"/>
    <circle cx="399" cy="289" r="3" fill="#EEEEEE"/>
</svg>
