<svg width="360" height="640" viewBox="0 0 268 472" fill="none" xmlns="http://www.w3.org/2000/svg">
    <circle cx="4" cy="4" r="4" fill="#EEEEEE"/>
    <circle cx="30" cy="4" r="4" fill="#EEEEEE"/>
    <circle cx="56" cy="4" r="4" fill="#EEEEEE"/>
    <circle cx="82" cy="4" r="4" fill="#EEEEEE"/>
    <circle cx="108" cy="4" r="4" fill="#EEEEEE"/>
    <circle cx="134" cy="4" r="4" fill="#EEEEEE"/>
    <circle cx="160" cy="4" r="4" fill="#EEEEEE"/>
    <circle cx="186" cy="4" r="4" fill="#EEEEEE"/>
    <circle cx="212" cy="4" r="4" fill="#EEEEEE"/>
    <circle cx="238" cy="4" r="4" fill="#EEEEEE"/>
    <circle cx="264" cy="4" r="4" fill="#EEEEEE"/>
    <circle cx="4" cy="30" r="4" fill="#EEEEEE"/>
    <circle cx="30" cy="30" r="4" fill="#EEEEEE"/>
    <circle cx="56" cy="30" r="4" fill="#EEEEEE"/>
    <circle cx="82" cy="30" r="4" fill="#EEEEEE"/>
    <circle cx="108" cy="30" r="4" fill="#EEEEEE"/>
    <circle cx="134" cy="30" r="4" fill="#EEEEEE"/>
    <circle cx="160" cy="30" r="4" fill="#EEEEEE"/>
    <circle cx="186" cy="30" r="4" fill="#EEEEEE"/>
    <circle cx="212" cy="30" r="4" fill="#EEEEEE"/>
    <circle cx="238" cy="30" r="4" fill="#EEEEEE"/>
    <circle cx="264" cy="30" r="4" fill="#EEEEEE"/>
    <circle cx="4" cy="56" r="4" fill="#EEEEEE"/>
    <circle cx="30" cy="56" r="4" fill="#EEEEEE"/>
    <circle cx="56" cy="56" r="4" fill="#EEEEEE"/>
    <circle cx="82" cy="56" r="4" fill="#EEEEEE"/>
    <circle cx="108" cy="56" r="4" fill="#EEEEEE"/>
    <circle cx="134" cy="56" r="4" fill="#EEEEEE"/>
    <circle cx="160" cy="56" r="4" fill="#EEEEEE"/>
    <circle cx="186" cy="56" r="4" fill="#EEEEEE"/>
    <circle cx="212" cy="56" r="4" fill="#EEEEEE"/>
    <circle cx="238" cy="56" r="4" fill="#EEEEEE"/>
    <circle cx="264" cy="56" r="4" fill="#EEEEEE"/>
    <circle cx="4" cy="82" r="4" fill="#EEEEEE"/>
    <circle cx="30" cy="82" r="4" fill="#EEEEEE"/>
    <circle cx="56" cy="82" r="4" fill="#EEEEEE"/>
    <circle cx="82" cy="82" r="4" fill="#EEEEEE"/>
    <circle cx="108" cy="82" r="4" fill="#EEEEEE"/>
    <circle cx="134" cy="82" r="4" fill="#EEEEEE"/>
    <circle cx="160" cy="82" r="4" fill="#EEEEEE"/>
    <circle cx="186" cy="82" r="4" fill="#EEEEEE"/>
    <circle cx="212" cy="82" r="4" fill="#EEEEEE"/>
    <circle cx="238" cy="82" r="4" fill="#EEEEEE"/>
    <circle cx="264" cy="82" r="4" fill="#EEEEEE"/>
    <circle cx="4" cy="108" r="4" fill="#EEEEEE"/>
    <circle cx="30" cy="108" r="4" fill="#EEEEEE"/>
    <circle cx="56" cy="108" r="4" fill="#EEEEEE"/>
    <circle cx="82" cy="108" r="4" fill="#EEEEEE"/>
    <circle cx="108" cy="108" r="4" fill="#EEEEEE"/>
    <circle cx="134" cy="108" r="4" fill="#EEEEEE"/>
    <circle cx="160" cy="108" r="4" fill="#EEEEEE"/>
    <circle cx="186" cy="108" r="4" fill="#EEEEEE"/>
    <circle cx="212" cy="108" r="4" fill="#EEEEEE"/>
    <circle cx="238" cy="108" r="4" fill="#EEEEEE"/>
    <circle cx="264" cy="108" r="4" fill="#EEEEEE"/>
    <circle cx="4" cy="134" r="4" fill="#EEEEEE"/>
    <circle cx="30" cy="134" r="4" fill="#EEEEEE"/>
    <circle cx="56" cy="134" r="4" fill="#EEEEEE"/>
    <circle cx="82" cy="134" r="4" fill="#EEEEEE"/>
    <circle cx="108" cy="134" r="4" fill="#EEEEEE"/>
    <circle cx="134" cy="134" r="4" fill="#EEEEEE"/>
    <circle cx="160" cy="134" r="4" fill="#EEEEEE"/>
    <circle cx="186" cy="134" r="4" fill="#EEEEEE"/>
    <circle cx="212" cy="134" r="4" fill="#EEEEEE"/>
    <circle cx="238" cy="134" r="4" fill="#EEEEEE"/>
    <circle cx="264" cy="134" r="4" fill="#EEEEEE"/>
    <circle cx="4" cy="160" r="4" fill="#EEEEEE"/>
    <circle cx="30" cy="160" r="4" fill="#EEEEEE"/>
    <circle cx="56" cy="160" r="4" fill="#EEEEEE"/>
    <circle cx="82" cy="160" r="4" fill="#EEEEEE"/>
    <circle cx="108" cy="160" r="4" fill="#EEEEEE"/>
    <circle cx="134" cy="160" r="4" fill="#EEEEEE"/>
    <circle cx="160" cy="160" r="4" fill="#EEEEEE"/>
    <circle cx="186" cy="160" r="4" fill="#EEEEEE"/>
    <circle cx="212" cy="160" r="4" fill="#EEEEEE"/>
    <circle cx="238" cy="160" r="4" fill="#EEEEEE"/>
    <circle cx="264" cy="160" r="4" fill="#EEEEEE"/>
    <circle cx="4" cy="186" r="4" fill="#EEEEEE"/>
    <circle cx="30" cy="186" r="4" fill="#EEEEEE"/>
    <circle cx="56" cy="186" r="4" fill="#EEEEEE"/>
    <circle cx="82" cy="186" r="4" fill="#EEEEEE"/>
    <circle cx="108" cy="186" r="4" fill="#EEEEEE"/>
    <circle cx="134" cy="186" r="4" fill="#EEEEEE"/>
    <circle cx="160" cy="186" r="4" fill="#EEEEEE"/>
    <circle cx="186" cy="186" r="4" fill="#EEEEEE"/>
    <circle cx="212" cy="186" r="4" fill="#EEEEEE"/>
    <circle cx="238" cy="186" r="4" fill="#EEEEEE"/>
    <circle cx="264" cy="186" r="4" fill="#EEEEEE"/>
    <circle cx="4" cy="212" r="4" fill="#EEEEEE"/>
    <circle cx="30" cy="212" r="4" fill="#EEEEEE"/>
    <circle cx="56" cy="212" r="4" fill="#EEEEEE"/>
    <circle cx="82" cy="212" r="4" fill="#EEEEEE"/>
    <circle cx="108" cy="212" r="4" fill="#EEEEEE"/>
    <circle cx="134" cy="212" r="4" fill="#EEEEEE"/>
    <circle cx="160" cy="212" r="4" fill="#EEEEEE"/>
    <circle cx="186" cy="212" r="4" fill="#EEEEEE"/>
    <circle cx="212" cy="212" r="4" fill="#EEEEEE"/>
    <circle cx="238" cy="212" r="4" fill="#EEEEEE"/>
    <circle cx="264" cy="212" r="4" fill="#EEEEEE"/>
    <circle cx="4" cy="238" r="4" fill="#EEEEEE"/>
    <circle cx="30" cy="238" r="4" fill="#EEEEEE"/>
    <circle cx="56" cy="238" r="4" fill="#EEEEEE"/>
    <circle cx="82" cy="238" r="4" fill="#EEEEEE"/>
    <circle cx="108" cy="238" r="4" fill="#EEEEEE"/>
    <circle cx="134" cy="238" r="4" fill="#EEEEEE"/>
    <circle cx="160" cy="238" r="4" fill="#EEEEEE"/>
    <circle cx="186" cy="238" r="4" fill="#EEEEEE"/>
    <circle cx="212" cy="238" r="4" fill="#EEEEEE"/>
    <circle cx="238" cy="238" r="4" fill="#EEEEEE"/>
    <circle cx="264" cy="238" r="4" fill="#EEEEEE"/>
    <circle cx="4" cy="264" r="4" fill="#EEEEEE"/>
    <circle cx="30" cy="264" r="4" fill="#EEEEEE"/>
    <circle cx="56" cy="264" r="4" fill="#EEEEEE"/>
    <circle cx="82" cy="264" r="4" fill="#EEEEEE"/>
    <circle cx="108" cy="264" r="4" fill="#EEEEEE"/>
    <circle cx="134" cy="264" r="4" fill="#EEEEEE"/>
    <circle cx="160" cy="264" r="4" fill="#EEEEEE"/>
    <circle cx="186" cy="264" r="4" fill="#EEEEEE"/>
    <circle cx="212" cy="264" r="4" fill="#EEEEEE"/>
    <circle cx="238" cy="264" r="4" fill="#EEEEEE"/>
    <circle cx="264" cy="264" r="4" fill="#EEEEEE"/>
    <circle cx="4" cy="290" r="4" fill="#EEEEEE"/>
    <circle cx="30" cy="290" r="4" fill="#EEEEEE"/>
    <circle cx="56" cy="290" r="4" fill="#EEEEEE"/>
    <circle cx="82" cy="290" r="4" fill="#EEEEEE"/>
    <circle cx="108" cy="290" r="4" fill="#EEEEEE"/>
    <circle cx="134" cy="290" r="4" fill="#EEEEEE"/>
    <circle cx="160" cy="290" r="4" fill="#EEEEEE"/>
    <circle cx="186" cy="290" r="4" fill="#EEEEEE"/>
    <circle cx="212" cy="290" r="4" fill="#EEEEEE"/>
    <circle cx="238" cy="290" r="4" fill="#EEEEEE"/>
    <circle cx="264" cy="290" r="4" fill="#EEEEEE"/>
    <circle cx="4" cy="316" r="4" fill="#EEEEEE"/>
    <circle cx="30" cy="316" r="4" fill="#EEEEEE"/>
    <circle cx="56" cy="316" r="4" fill="#EEEEEE"/>
    <circle cx="82" cy="316" r="4" fill="#EEEEEE"/>
    <circle cx="108" cy="316" r="4" fill="#EEEEEE"/>
    <circle cx="134" cy="316" r="4" fill="#EEEEEE"/>
    <circle cx="160" cy="316" r="4" fill="#EEEEEE"/>
    <circle cx="186" cy="316" r="4" fill="#EEEEEE"/>
    <circle cx="212" cy="316" r="4" fill="#EEEEEE"/>
    <circle cx="238" cy="316" r="4" fill="#EEEEEE"/>
    <circle cx="264" cy="316" r="4" fill="#EEEEEE"/>
    <circle cx="4" cy="340" r="4" fill="#EEEEEE"/>
    <circle cx="30" cy="340" r="4" fill="#EEEEEE"/>
    <circle cx="56" cy="340" r="4" fill="#EEEEEE"/>
    <circle cx="82" cy="340" r="4" fill="#EEEEEE"/>
    <circle cx="108" cy="340" r="4" fill="#EEEEEE"/>
    <circle cx="134" cy="340" r="4" fill="#EEEEEE"/>
    <circle cx="160" cy="340" r="4" fill="#EEEEEE"/>
    <circle cx="186" cy="340" r="4" fill="#EEEEEE"/>
    <circle cx="212" cy="340" r="4" fill="#EEEEEE"/>
    <circle cx="238" cy="340" r="4" fill="#EEEEEE"/>
    <circle cx="264" cy="340" r="4" fill="#EEEEEE"/>
    <circle cx="4" cy="366" r="4" fill="#EEEEEE"/>
    <circle cx="30" cy="366" r="4" fill="#EEEEEE"/>
    <circle cx="56" cy="366" r="4" fill="#EEEEEE"/>
    <circle cx="82" cy="366" r="4" fill="#EEEEEE"/>
    <circle cx="108" cy="366" r="4" fill="#EEEEEE"/>
    <circle cx="134" cy="366" r="4" fill="#EEEEEE"/>
    <circle cx="160" cy="366" r="4" fill="#EEEEEE"/>
    <circle cx="186" cy="366" r="4" fill="#EEEEEE"/>
    <circle cx="212" cy="366" r="4" fill="#EEEEEE"/>
    <circle cx="238" cy="366" r="4" fill="#EEEEEE"/>
    <circle cx="264" cy="366" r="4" fill="#EEEEEE"/>
    <circle cx="4" cy="392" r="4" fill="#EEEEEE"/>
    <circle cx="30" cy="392" r="4" fill="#EEEEEE"/>
    <circle cx="56" cy="392" r="4" fill="#EEEEEE"/>
    <circle cx="82" cy="392" r="4" fill="#EEEEEE"/>
    <circle cx="108" cy="392" r="4" fill="#EEEEEE"/>
    <circle cx="134" cy="392" r="4" fill="#EEEEEE"/>
    <circle cx="160" cy="392" r="4" fill="#EEEEEE"/>
    <circle cx="186" cy="392" r="4" fill="#EEEEEE"/>
    <circle cx="212" cy="392" r="4" fill="#EEEEEE"/>
    <circle cx="238" cy="392" r="4" fill="#EEEEEE"/>
    <circle cx="264" cy="392" r="4" fill="#EEEEEE"/>
    <circle cx="4" cy="418" r="4" fill="#EEEEEE"/>
    <circle cx="30" cy="418" r="4" fill="#EEEEEE"/>
    <circle cx="56" cy="418" r="4" fill="#EEEEEE"/>
    <circle cx="82" cy="418" r="4" fill="#EEEEEE"/>
    <circle cx="108" cy="418" r="4" fill="#EEEEEE"/>
    <circle cx="134" cy="418" r="4" fill="#EEEEEE"/>
    <circle cx="160" cy="418" r="4" fill="#EEEEEE"/>
    <circle cx="186" cy="418" r="4" fill="#EEEEEE"/>
    <circle cx="212" cy="418" r="4" fill="#EEEEEE"/>
    <circle cx="238" cy="418" r="4" fill="#EEEEEE"/>
    <circle cx="264" cy="418" r="4" fill="#EEEEEE"/>
    <circle cx="4" cy="444" r="4" fill="#EEEEEE"/>
    <circle cx="30" cy="444" r="4" fill="#EEEEEE"/>
    <circle cx="56" cy="444" r="4" fill="#EEEEEE"/>
    <circle cx="82" cy="444" r="4" fill="#EEEEEE"/>
    <circle cx="108" cy="444" r="4" fill="#EEEEEE"/>
    <circle cx="134" cy="444" r="4" fill="#EEEEEE"/>
    <circle cx="160" cy="444" r="4" fill="#EEEEEE"/>
    <circle cx="186" cy="444" r="4" fill="#EEEEEE"/>
    <circle cx="212" cy="444" r="4" fill="#EEEEEE"/>
    <circle cx="238" cy="444" r="4" fill="#EEEEEE"/>
    <circle cx="264" cy="444" r="4" fill="#EEEEEE"/>
    <circle cx="4" cy="470" r="4" fill="#EEEEEE"/>
    <circle cx="30" cy="470" r="4" fill="#EEEEEE"/>
    <circle cx="56" cy="470" r="4" fill="#EEEEEE"/>
    <circle cx="82" cy="470" r="4" fill="#EEEEEE"/>
    <circle cx="108" cy="470" r="4" fill="#EEEEEE"/>
    <circle cx="134" cy="470" r="4" fill="#EEEEEE"/>
    <circle cx="160" cy="470" r="4" fill="#EEEEEE"/>
    <circle cx="186" cy="470" r="4" fill="#EEEEEE"/>
    <circle cx="212" cy="470" r="4" fill="#EEEEEE"/>
    <circle cx="238" cy="470" r="4" fill="#EEEEEE"/>
    <circle cx="264" cy="470" r="4" fill="#EEEEEE"/>
</svg>
