<svg width="334" height="400" viewBox="0 0 334 400" fill="none" xmlns="http://www.w3.org/2000/svg">
    <circle cx="3" cy="3" r="3" fill="#EEEEEE"/>
    <circle cx="25" cy="3" r="3" fill="#EEEEEE"/>
    <circle cx="47" cy="3" r="3" fill="#EEEEEE"/>
    <circle cx="3" cy="25" r="3" fill="#EEEEEE"/>
    <circle cx="25" cy="25" r="3" fill="#EEEEEE"/>
    <circle cx="47" cy="25" r="3" fill="#EEEEEE"/>
    <circle cx="3" cy="47" r="3" fill="#EEEEEE"/>
    <circle cx="25" cy="47" r="3" fill="#EEEEEE"/>
    <circle cx="47" cy="47" r="3" fill="#EEEEEE"/>
    <circle cx="3" cy="69" r="3" fill="#EEEEEE"/>
    <circle cx="25" cy="69" r="3" fill="#EEEEEE"/>
    <circle cx="47" cy="69" r="3" fill="#EEEEEE"/>
    <circle cx="3" cy="91" r="3" fill="#EEEEEE"/>
    <circle cx="25" cy="91" r="3" fill="#EEEEEE"/>
    <circle cx="47" cy="91" r="3" fill="#EEEEEE"/>
    <circle cx="3" cy="113" r="3" fill="#EEEEEE"/>
    <circle cx="25" cy="113" r="3" fill="#EEEEEE"/>
    <circle cx="47" cy="113" r="3" fill="#EEEEEE"/>
    <circle cx="3" cy="135" r="3" fill="#EEEEEE"/>
    <circle cx="25" cy="135" r="3" fill="#EEEEEE"/>
    <circle cx="47" cy="135" r="3" fill="#EEEEEE"/>
    <circle cx="3" cy="157" r="3" fill="#EEEEEE"/>
    <circle cx="25" cy="157" r="3" fill="#EEEEEE"/>
    <circle cx="47" cy="157" r="3" fill="#EEEEEE"/>
    <circle cx="3" cy="179" r="3" fill="#EEEEEE"/>
    <circle cx="25" cy="179" r="3" fill="#EEEEEE"/>
    <circle cx="47" cy="179" r="3" fill="#EEEEEE"/>
    <circle cx="3" cy="201" r="3" fill="#EEEEEE"/>
    <circle cx="25" cy="201" r="3" fill="#EEEEEE"/>
    <circle cx="47" cy="201" r="3" fill="#EEEEEE"/>
    <circle cx="3" cy="223" r="3" fill="#EEEEEE"/>
    <circle cx="25" cy="223" r="3" fill="#EEEEEE"/>
    <circle cx="47" cy="223" r="3" fill="#EEEEEE"/>
    <circle cx="3" cy="245" r="3" fill="#EEEEEE"/>
    <circle cx="25" cy="245" r="3" fill="#EEEEEE"/>
    <circle cx="47" cy="245" r="3" fill="#EEEEEE"/>
    <circle cx="3" cy="267" r="3" fill="#EEEEEE"/>
    <circle cx="25" cy="267" r="3" fill="#EEEEEE"/>
    <circle cx="47" cy="267" r="3" fill="#EEEEEE"/>
    <circle cx="3" cy="289" r="3" fill="#EEEEEE"/>
    <circle cx="25" cy="289" r="3" fill="#EEEEEE"/>
    <circle cx="47" cy="289" r="3" fill="#EEEEEE"/>
    <circle cx="3" cy="311" r="3" fill="#EEEEEE"/>
    <circle cx="25" cy="311" r="3" fill="#EEEEEE"/>
    <circle cx="47" cy="311" r="3" fill="#EEEEEE"/>
    <circle cx="3" cy="333" r="3" fill="#EEEEEE"/>
    <circle cx="25" cy="333" r="3" fill="#EEEEEE"/>
    <circle cx="47" cy="333" r="3" fill="#EEEEEE"/>
    <circle cx="69" cy="333" r="3" fill="#EEEEEE"/>
    <circle cx="91" cy="333" r="3" fill="#EEEEEE"/>
    <circle cx="113" cy="333" r="3" fill="#EEEEEE"/>
    <circle cx="135" cy="333" r="3" fill="#EEEEEE"/>
    <circle cx="157" cy="333" r="3" fill="#EEEEEE"/>
    <circle cx="179" cy="333" r="3" fill="#EEEEEE"/>
    <circle cx="201" cy="333" r="3" fill="#EEEEEE"/>
    <circle cx="223" cy="333" r="3" fill="#EEEEEE"/>
    <circle cx="245" cy="333" r="3" fill="#EEEEEE"/>
    <circle cx="269" cy="333" r="3" fill="#EEEEEE"/>
    <circle cx="291" cy="333" r="3" fill="#EEEEEE"/>
    <circle cx="311" cy="333" r="3" fill="#EEEEEE"/>
    <circle cx="3" cy="355" r="3" fill="#EEEEEE"/>
    <circle cx="25" cy="355" r="3" fill="#EEEEEE"/>
    <circle cx="47" cy="355" r="3" fill="#EEEEEE"/>
    <circle cx="69" cy="355" r="3" fill="#EEEEEE"/>
    <circle cx="91" cy="355" r="3" fill="#EEEEEE"/>
    <circle cx="113" cy="355" r="3" fill="#EEEEEE"/>
    <circle cx="135" cy="355" r="3" fill="#EEEEEE"/>
    <circle cx="157" cy="355" r="3" fill="#EEEEEE"/>
    <circle cx="179" cy="355" r="3" fill="#EEEEEE"/>
    <circle cx="201" cy="355" r="3" fill="#EEEEEE"/>
    <circle cx="223" cy="355" r="3" fill="#EEEEEE"/>
    <circle cx="245" cy="355" r="3" fill="#EEEEEE"/>
    <circle cx="269" cy="355" r="3" fill="#EEEEEE"/>
    <circle cx="291" cy="355" r="3" fill="#EEEEEE"/>
    <circle cx="311" cy="355" r="3" fill="#EEEEEE"/>
    <circle cx="3" cy="377" r="3" fill="#EEEEEE"/>
    <circle cx="25" cy="377" r="3" fill="#EEEEEE"/>
    <circle cx="47" cy="377" r="3" fill="#EEEEEE"/>
    <circle cx="69" cy="377" r="3" fill="#EEEEEE"/>
    <circle cx="91" cy="377" r="3" fill="#EEEEEE"/>
    <circle cx="113" cy="377" r="3" fill="#EEEEEE"/>
    <circle cx="135" cy="377" r="3" fill="#EEEEEE"/>
    <circle cx="157" cy="377" r="3" fill="#EEEEEE"/>
    <circle cx="179" cy="377" r="3" fill="#EEEEEE"/>
    <circle cx="201" cy="377" r="3" fill="#EEEEEE"/>
    <circle cx="223" cy="377" r="3" fill="#EEEEEE"/>
    <circle cx="245" cy="377" r="3" fill="#EEEEEE"/>
    <circle cx="269" cy="377" r="3" fill="#EEEEEE"/>
    <circle cx="291" cy="377" r="3" fill="#EEEEEE"/>
    <circle cx="311" cy="377" r="3" fill="#EEEEEE"/>
</svg>
