<svg fill="#EEEEEE" width="600" height="450" viewBox="0 0 500 366" xmlns="http://www.w3.org/2000/svg">
    <circle cx="4" cy="4" r="4" fill="#EEEEEE"/>
    <circle cx="30" cy="4" r="4" fill="#EEEEEE"/>
    <circle cx="56" cy="4" r="4" fill="#EEEEEE"/>
    <circle cx="82" cy="4" r="4" fill="#EEEEEE"/>
    <circle cx="108" cy="4" r="4" fill="#EEEEEE"/>
    <circle cx="134" cy="4" r="4" fill="#EEEEEE"/>
    <circle cx="160" cy="4" r="4" fill="#EEEEEE"/>
    <circle cx="186" cy="4" r="4" fill="#EEEEEE"/>
    <circle cx="212" cy="4" r="4" fill="#EEEEEE"/>
    <circle cx="238" cy="4" r="4" fill="#EEEEEE"/>
    <circle cx="264" cy="4" r="4" fill="#EEEEEE"/>
    <circle cx="290" cy="4" r="4" fill="#EEEEEE"/>
    <circle cx="316" cy="4" r="4" fill="#EEEEEE"/>
    <circle cx="340" cy="4" r="4" fill="#EEEEEE"/>
    <circle cx="366" cy="4" r="4" fill="#EEEEEE"/>
    <circle cx="392" cy="4" r="4" fill="#EEEEEE"/>
    <circle cx="418" cy="4" r="4" fill="#EEEEEE"/>
    <circle cx="444" cy="4" r="4" fill="#EEEEEE"/>
    <circle cx="470" cy="4" r="4" fill="#EEEEEE"/>
    <circle cx="496" cy="4" r="4" fill="#EEEEEE"/>
    <circle cx="522" cy="4" r="4" fill="#EEEEEE"/>
    <circle cx="548" cy="4" r="4" fill="#EEEEEE"/>
    <circle cx="574" cy="4" r="4" fill="#EEEEEE"/>
    <circle cx="600" cy="4" r="4" fill="#EEEEEE"/>
    <circle cx="4" cy="30" r="4" fill="#EEEEEE"/>
    <circle cx="30" cy="30" r="4" fill="#EEEEEE"/>
    <circle cx="56" cy="30" r="4" fill="#EEEEEE"/>
    <circle cx="82" cy="30" r="4" fill="#EEEEEE"/>
    <circle cx="108" cy="30" r="4" fill="#EEEEEE"/>
    <circle cx="134" cy="30" r="4" fill="#EEEEEE"/>
    <circle cx="160" cy="30" r="4" fill="#EEEEEE"/>
    <circle cx="186" cy="30" r="4" fill="#EEEEEE"/>
    <circle cx="212" cy="30" r="4" fill="#EEEEEE"/>
    <circle cx="238" cy="30" r="4" fill="#EEEEEE"/>
    <circle cx="264" cy="30" r="4" fill="#EEEEEE"/>
    <circle cx="290" cy="30" r="4" fill="#EEEEEE"/>
    <circle cx="316" cy="30" r="4" fill="#EEEEEE"/>
    <circle cx="340" cy="30" r="4" fill="#EEEEEE"/>
    <circle cx="366" cy="30" r="4" fill="#EEEEEE"/>
    <circle cx="392" cy="30" r="4" fill="#EEEEEE"/>
    <circle cx="418" cy="30" r="4" fill="#EEEEEE"/>
    <circle cx="444" cy="30" r="4" fill="#EEEEEE"/>
    <circle cx="470" cy="30" r="4" fill="#EEEEEE"/>
    <circle cx="496" cy="30" r="4" fill="#EEEEEE"/>
    <circle cx="522" cy="30" r="4" fill="#EEEEEE"/>
    <circle cx="548" cy="30" r="4" fill="#EEEEEE"/>
    <circle cx="574" cy="30" r="4" fill="#EEEEEE"/>
    <circle cx="600" cy="30" r="4" fill="#EEEEEE"/>
    <circle cx="4" cy="56" r="4" fill="#EEEEEE"/>
    <circle cx="30" cy="56" r="4" fill="#EEEEEE"/>
    <circle cx="56" cy="56" r="4" fill="#EEEEEE"/>
    <circle cx="82" cy="56" r="4" fill="#EEEEEE"/>
    <circle cx="108" cy="56" r="4" fill="#EEEEEE"/>
    <circle cx="134" cy="56" r="4" fill="#EEEEEE"/>
    <circle cx="160" cy="56" r="4" fill="#EEEEEE"/>
    <circle cx="186" cy="56" r="4" fill="#EEEEEE"/>
    <circle cx="212" cy="56" r="4" fill="#EEEEEE"/>
    <circle cx="238" cy="56" r="4" fill="#EEEEEE"/>
    <circle cx="264" cy="56" r="4" fill="#EEEEEE"/>
    <circle cx="290" cy="56" r="4" fill="#EEEEEE"/>
    <circle cx="316" cy="56" r="4" fill="#EEEEEE"/>
    <circle cx="340" cy="56" r="4" fill="#EEEEEE"/>
    <circle cx="366" cy="56" r="4" fill="#EEEEEE"/>
    <circle cx="392" cy="56" r="4" fill="#EEEEEE"/>
    <circle cx="418" cy="56" r="4" fill="#EEEEEE"/>
    <circle cx="444" cy="56" r="4" fill="#EEEEEE"/>
    <circle cx="470" cy="56" r="4" fill="#EEEEEE"/>
    <circle cx="496" cy="56" r="4" fill="#EEEEEE"/>
    <circle cx="522" cy="56" r="4" fill="#EEEEEE"/>
    <circle cx="548" cy="56" r="4" fill="#EEEEEE"/>
    <circle cx="574" cy="56" r="4" fill="#EEEEEE"/>
    <circle cx="600" cy="56" r="4" fill="#EEEEEE"/>
    <circle cx="4" cy="82" r="4" fill="#EEEEEE"/>
    <circle cx="30" cy="82" r="4" fill="#EEEEEE"/>
    <circle cx="56" cy="82" r="4" fill="#EEEEEE"/>
    <circle cx="82" cy="82" r="4" fill="#EEEEEE"/>
    <circle cx="108" cy="82" r="4" fill="#EEEEEE"/>
    <circle cx="134" cy="82" r="4" fill="#EEEEEE"/>
    <circle cx="160" cy="82" r="4" fill="#EEEEEE"/>
    <circle cx="186" cy="82" r="4" fill="#EEEEEE"/>
    <circle cx="212" cy="82" r="4" fill="#EEEEEE"/>
    <circle cx="238" cy="82" r="4" fill="#EEEEEE"/>
    <circle cx="264" cy="82" r="4" fill="#EEEEEE"/>
    <circle cx="290" cy="82" r="4" fill="#EEEEEE"/>
    <circle cx="316" cy="82" r="4" fill="#EEEEEE"/>
    <circle cx="340" cy="82" r="4" fill="#EEEEEE"/>
    <circle cx="366" cy="82" r="4" fill="#EEEEEE"/>
    <circle cx="392" cy="82" r="4" fill="#EEEEEE"/>
    <circle cx="418" cy="82" r="4" fill="#EEEEEE"/>
    <circle cx="444" cy="82" r="4" fill="#EEEEEE"/>
    <circle cx="470" cy="82" r="4" fill="#EEEEEE"/>
    <circle cx="496" cy="82" r="4" fill="#EEEEEE"/>
    <circle cx="522" cy="82" r="4" fill="#EEEEEE"/>
    <circle cx="548" cy="82" r="4" fill="#EEEEEE"/>
    <circle cx="574" cy="82" r="4" fill="#EEEEEE"/>
    <circle cx="600" cy="82" r="4" fill="#EEEEEE"/>
    <circle cx="4" cy="108" r="4" fill="#EEEEEE"/>
    <circle cx="30" cy="108" r="4" fill="#EEEEEE"/>
    <circle cx="56" cy="108" r="4" fill="#EEEEEE"/>
    <circle cx="82" cy="108" r="4" fill="#EEEEEE"/>
    <circle cx="108" cy="108" r="4" fill="#EEEEEE"/>
    <circle cx="134" cy="108" r="4" fill="#EEEEEE"/>
    <circle cx="160" cy="108" r="4" fill="#EEEEEE"/>
    <circle cx="186" cy="108" r="4" fill="#EEEEEE"/>
    <circle cx="212" cy="108" r="4" fill="#EEEEEE"/>
    <circle cx="238" cy="108" r="4" fill="#EEEEEE"/>
    <circle cx="264" cy="108" r="4" fill="#EEEEEE"/>
    <circle cx="290" cy="108" r="4" fill="#EEEEEE"/>
    <circle cx="316" cy="108" r="4" fill="#EEEEEE"/>
    <circle cx="340" cy="108" r="4" fill="#EEEEEE"/>
    <circle cx="366" cy="108" r="4" fill="#EEEEEE"/>
    <circle cx="392" cy="108" r="4" fill="#EEEEEE"/>
    <circle cx="418" cy="108" r="4" fill="#EEEEEE"/>
    <circle cx="444" cy="108" r="4" fill="#EEEEEE"/>
    <circle cx="470" cy="108" r="4" fill="#EEEEEE"/>
    <circle cx="496" cy="108" r="4" fill="#EEEEEE"/>
    <circle cx="522" cy="108" r="4" fill="#EEEEEE"/>
    <circle cx="548" cy="108" r="4" fill="#EEEEEE"/>
    <circle cx="574" cy="108" r="4" fill="#EEEEEE"/>
    <circle cx="600" cy="108" r="4" fill="#EEEEEE"/>
    <circle cx="4" cy="134" r="4" fill="#EEEEEE"/>
    <circle cx="30" cy="134" r="4" fill="#EEEEEE"/>
    <circle cx="56" cy="134" r="4" fill="#EEEEEE"/>
    <circle cx="82" cy="134" r="4" fill="#EEEEEE"/>
    <circle cx="108" cy="134" r="4" fill="#EEEEEE"/>
    <circle cx="134" cy="134" r="4" fill="#EEEEEE"/>
    <circle cx="160" cy="134" r="4" fill="#EEEEEE"/>
    <circle cx="186" cy="134" r="4" fill="#EEEEEE"/>
    <circle cx="212" cy="134" r="4" fill="#EEEEEE"/>
    <circle cx="238" cy="134" r="4" fill="#EEEEEE"/>
    <circle cx="264" cy="134" r="4" fill="#EEEEEE"/>
    <circle cx="290" cy="134" r="4" fill="#EEEEEE"/>
    <circle cx="316" cy="134" r="4" fill="#EEEEEE"/>
    <circle cx="340" cy="134" r="4" fill="#EEEEEE"/>
    <circle cx="366" cy="134" r="4" fill="#EEEEEE"/>
    <circle cx="392" cy="134" r="4" fill="#EEEEEE"/>
    <circle cx="418" cy="134" r="4" fill="#EEEEEE"/>
    <circle cx="444" cy="134" r="4" fill="#EEEEEE"/>
    <circle cx="470" cy="134" r="4" fill="#EEEEEE"/>
    <circle cx="496" cy="134" r="4" fill="#EEEEEE"/>
    <circle cx="522" cy="134" r="4" fill="#EEEEEE"/>
    <circle cx="548" cy="134" r="4" fill="#EEEEEE"/>
    <circle cx="574" cy="134" r="4" fill="#EEEEEE"/>
    <circle cx="600" cy="134" r="4" fill="#EEEEEE"/>
    <circle cx="4" cy="160" r="4" fill="#EEEEEE"/>
    <circle cx="30" cy="160" r="4" fill="#EEEEEE"/>
    <circle cx="56" cy="160" r="4" fill="#EEEEEE"/>
    <circle cx="82" cy="160" r="4" fill="#EEEEEE"/>
    <circle cx="108" cy="160" r="4" fill="#EEEEEE"/>
    <circle cx="134" cy="160" r="4" fill="#EEEEEE"/>
    <circle cx="160" cy="160" r="4" fill="#EEEEEE"/>
    <circle cx="186" cy="160" r="4" fill="#EEEEEE"/>
    <circle cx="212" cy="160" r="4" fill="#EEEEEE"/>
    <circle cx="238" cy="160" r="4" fill="#EEEEEE"/>
    <circle cx="264" cy="160" r="4" fill="#EEEEEE"/>
    <circle cx="290" cy="160" r="4" fill="#EEEEEE"/>
    <circle cx="316" cy="160" r="4" fill="#EEEEEE"/>
    <circle cx="340" cy="160" r="4" fill="#EEEEEE"/>
    <circle cx="366" cy="160" r="4" fill="#EEEEEE"/>
    <circle cx="392" cy="160" r="4" fill="#EEEEEE"/>
    <circle cx="418" cy="160" r="4" fill="#EEEEEE"/>
    <circle cx="444" cy="160" r="4" fill="#EEEEEE"/>
    <circle cx="470" cy="160" r="4" fill="#EEEEEE"/>
    <circle cx="496" cy="160" r="4" fill="#EEEEEE"/>
    <circle cx="522" cy="160" r="4" fill="#EEEEEE"/>
    <circle cx="548" cy="160" r="4" fill="#EEEEEE"/>
    <circle cx="574" cy="160" r="4" fill="#EEEEEE"/>
    <circle cx="600" cy="160" r="4" fill="#EEEEEE"/>
    <circle cx="4" cy="186" r="4" fill="#EEEEEE"/>
    <circle cx="30" cy="186" r="4" fill="#EEEEEE"/>
    <circle cx="56" cy="186" r="4" fill="#EEEEEE"/>
    <circle cx="82" cy="186" r="4" fill="#EEEEEE"/>
    <circle cx="108" cy="186" r="4" fill="#EEEEEE"/>
    <circle cx="134" cy="186" r="4" fill="#EEEEEE"/>
    <circle cx="160" cy="186" r="4" fill="#EEEEEE"/>
    <circle cx="186" cy="186" r="4" fill="#EEEEEE"/>
    <circle cx="212" cy="186" r="4" fill="#EEEEEE"/>
    <circle cx="238" cy="186" r="4" fill="#EEEEEE"/>
    <circle cx="264" cy="186" r="4" fill="#EEEEEE"/>
    <circle cx="290" cy="186" r="4" fill="#EEEEEE"/>
    <circle cx="316" cy="186" r="4" fill="#EEEEEE"/>
    <circle cx="340" cy="186" r="4" fill="#EEEEEE"/>
    <circle cx="366" cy="186" r="4" fill="#EEEEEE"/>
    <circle cx="392" cy="186" r="4" fill="#EEEEEE"/>
    <circle cx="418" cy="186" r="4" fill="#EEEEEE"/>
    <circle cx="444" cy="186" r="4" fill="#EEEEEE"/>
    <circle cx="470" cy="186" r="4" fill="#EEEEEE"/>
    <circle cx="496" cy="186" r="4" fill="#EEEEEE"/>
    <circle cx="522" cy="186" r="4" fill="#EEEEEE"/>
    <circle cx="548" cy="186" r="4" fill="#EEEEEE"/>
    <circle cx="574" cy="186" r="4" fill="#EEEEEE"/>
    <circle cx="600" cy="186" r="4" fill="#EEEEEE"/>
    <circle cx="4" cy="212" r="4" fill="#EEEEEE"/>
    <circle cx="30" cy="212" r="4" fill="#EEEEEE"/>
    <circle cx="56" cy="212" r="4" fill="#EEEEEE"/>
    <circle cx="82" cy="212" r="4" fill="#EEEEEE"/>
    <circle cx="108" cy="212" r="4" fill="#EEEEEE"/>
    <circle cx="134" cy="212" r="4" fill="#EEEEEE"/>
    <circle cx="160" cy="212" r="4" fill="#EEEEEE"/>
    <circle cx="186" cy="212" r="4" fill="#EEEEEE"/>
    <circle cx="212" cy="212" r="4" fill="#EEEEEE"/>
    <circle cx="238" cy="212" r="4" fill="#EEEEEE"/>
    <circle cx="264" cy="212" r="4" fill="#EEEEEE"/>
    <circle cx="290" cy="212" r="4" fill="#EEEEEE"/>
    <circle cx="316" cy="212" r="4" fill="#EEEEEE"/>
    <circle cx="340" cy="212" r="4" fill="#EEEEEE"/>
    <circle cx="366" cy="212" r="4" fill="#EEEEEE"/>
    <circle cx="392" cy="212" r="4" fill="#EEEEEE"/>
    <circle cx="418" cy="212" r="4" fill="#EEEEEE"/>
    <circle cx="444" cy="212" r="4" fill="#EEEEEE"/>
    <circle cx="470" cy="212" r="4" fill="#EEEEEE"/>
    <circle cx="496" cy="212" r="4" fill="#EEEEEE"/>
    <circle cx="522" cy="212" r="4" fill="#EEEEEE"/>
    <circle cx="548" cy="212" r="4" fill="#EEEEEE"/>
    <circle cx="574" cy="212" r="4" fill="#EEEEEE"/>
    <circle cx="600" cy="212" r="4" fill="#EEEEEE"/>
    <circle cx="4" cy="238" r="4" fill="#EEEEEE"/>
    <circle cx="30" cy="238" r="4" fill="#EEEEEE"/>
    <circle cx="56" cy="238" r="4" fill="#EEEEEE"/>
    <circle cx="82" cy="238" r="4" fill="#EEEEEE"/>
    <circle cx="108" cy="238" r="4" fill="#EEEEEE"/>
    <circle cx="134" cy="238" r="4" fill="#EEEEEE"/>
    <circle cx="160" cy="238" r="4" fill="#EEEEEE"/>
    <circle cx="186" cy="238" r="4" fill="#EEEEEE"/>
    <circle cx="212" cy="238" r="4" fill="#EEEEEE"/>
    <circle cx="238" cy="238" r="4" fill="#EEEEEE"/>
    <circle cx="264" cy="238" r="4" fill="#EEEEEE"/>
    <circle cx="290" cy="238" r="4" fill="#EEEEEE"/>
    <circle cx="316" cy="238" r="4" fill="#EEEEEE"/>
    <circle cx="340" cy="238" r="4" fill="#EEEEEE"/>
    <circle cx="366" cy="238" r="4" fill="#EEEEEE"/>
    <circle cx="392" cy="238" r="4" fill="#EEEEEE"/>
    <circle cx="418" cy="238" r="4" fill="#EEEEEE"/>
    <circle cx="444" cy="238" r="4" fill="#EEEEEE"/>
    <circle cx="470" cy="238" r="4" fill="#EEEEEE"/>
    <circle cx="496" cy="238" r="4" fill="#EEEEEE"/>
    <circle cx="522" cy="238" r="4" fill="#EEEEEE"/>
    <circle cx="548" cy="238" r="4" fill="#EEEEEE"/>
    <circle cx="574" cy="238" r="4" fill="#EEEEEE"/>
    <circle cx="600" cy="238" r="4" fill="#EEEEEE"/>
    <circle cx="4" cy="264" r="4" fill="#EEEEEE"/>
    <circle cx="30" cy="264" r="4" fill="#EEEEEE"/>
    <circle cx="56" cy="264" r="4" fill="#EEEEEE"/>
    <circle cx="82" cy="264" r="4" fill="#EEEEEE"/>
    <circle cx="108" cy="264" r="4" fill="#EEEEEE"/>
    <circle cx="134" cy="264" r="4" fill="#EEEEEE"/>
    <circle cx="160" cy="264" r="4" fill="#EEEEEE"/>
    <circle cx="186" cy="264" r="4" fill="#EEEEEE"/>
    <circle cx="212" cy="264" r="4" fill="#EEEEEE"/>
    <circle cx="238" cy="264" r="4" fill="#EEEEEE"/>
    <circle cx="264" cy="264" r="4" fill="#EEEEEE"/>
    <circle cx="290" cy="264" r="4" fill="#EEEEEE"/>
    <circle cx="316" cy="264" r="4" fill="#EEEEEE"/>
    <circle cx="340" cy="264" r="4" fill="#EEEEEE"/>
    <circle cx="366" cy="264" r="4" fill="#EEEEEE"/>
    <circle cx="392" cy="264" r="4" fill="#EEEEEE"/>
    <circle cx="418" cy="264" r="4" fill="#EEEEEE"/>
    <circle cx="444" cy="264" r="4" fill="#EEEEEE"/>
    <circle cx="470" cy="264" r="4" fill="#EEEEEE"/>
    <circle cx="496" cy="264" r="4" fill="#EEEEEE"/>
    <circle cx="522" cy="264" r="4" fill="#EEEEEE"/>
    <circle cx="548" cy="264" r="4" fill="#EEEEEE"/>
    <circle cx="574" cy="264" r="4" fill="#EEEEEE"/>
    <circle cx="600" cy="264" r="4" fill="#EEEEEE"/>
    <circle cx="4" cy="290" r="4" fill="#EEEEEE"/>
    <circle cx="30" cy="290" r="4" fill="#EEEEEE"/>
    <circle cx="56" cy="290" r="4" fill="#EEEEEE"/>
    <circle cx="82" cy="290" r="4" fill="#EEEEEE"/>
    <circle cx="108" cy="290" r="4" fill="#EEEEEE"/>
    <circle cx="134" cy="290" r="4" fill="#EEEEEE"/>
    <circle cx="160" cy="290" r="4" fill="#EEEEEE"/>
    <circle cx="186" cy="290" r="4" fill="#EEEEEE"/>
    <circle cx="212" cy="290" r="4" fill="#EEEEEE"/>
    <circle cx="238" cy="290" r="4" fill="#EEEEEE"/>
    <circle cx="264" cy="290" r="4" fill="#EEEEEE"/>
    <circle cx="290" cy="290" r="4" fill="#EEEEEE"/>
    <circle cx="316" cy="290" r="4" fill="#EEEEEE"/>
    <circle cx="340" cy="290" r="4" fill="#EEEEEE"/>
    <circle cx="366" cy="290" r="4" fill="#EEEEEE"/>
    <circle cx="392" cy="290" r="4" fill="#EEEEEE"/>
    <circle cx="418" cy="290" r="4" fill="#EEEEEE"/>
    <circle cx="444" cy="290" r="4" fill="#EEEEEE"/>
    <circle cx="470" cy="290" r="4" fill="#EEEEEE"/>
    <circle cx="496" cy="290" r="4" fill="#EEEEEE"/>
    <circle cx="522" cy="290" r="4" fill="#EEEEEE"/>
    <circle cx="548" cy="290" r="4" fill="#EEEEEE"/>
    <circle cx="574" cy="290" r="4" fill="#EEEEEE"/>
    <circle cx="600" cy="290" r="4" fill="#EEEEEE"/>
    <circle cx="4" cy="316" r="4" fill="#EEEEEE"/>
    <circle cx="30" cy="316" r="4" fill="#EEEEEE"/>
    <circle cx="56" cy="316" r="4" fill="#EEEEEE"/>
    <circle cx="82" cy="316" r="4" fill="#EEEEEE"/>
    <circle cx="108" cy="316" r="4" fill="#EEEEEE"/>
    <circle cx="134" cy="316" r="4" fill="#EEEEEE"/>
    <circle cx="160" cy="316" r="4" fill="#EEEEEE"/>
    <circle cx="186" cy="316" r="4" fill="#EEEEEE"/>
    <circle cx="212" cy="316" r="4" fill="#EEEEEE"/>
    <circle cx="238" cy="316" r="4" fill="#EEEEEE"/>
    <circle cx="264" cy="316" r="4" fill="#EEEEEE"/>
    <circle cx="290" cy="316" r="4" fill="#EEEEEE"/>
    <circle cx="316" cy="316" r="4" fill="#EEEEEE"/>
    <circle cx="340" cy="316" r="4" fill="#EEEEEE"/>
    <circle cx="366" cy="316" r="4" fill="#EEEEEE"/>
    <circle cx="392" cy="316" r="4" fill="#EEEEEE"/>
    <circle cx="418" cy="316" r="4" fill="#EEEEEE"/>
    <circle cx="444" cy="316" r="4" fill="#EEEEEE"/>
    <circle cx="470" cy="316" r="4" fill="#EEEEEE"/>
    <circle cx="496" cy="316" r="4" fill="#EEEEEE"/>
    <circle cx="522" cy="316" r="4" fill="#EEEEEE"/>
    <circle cx="548" cy="316" r="4" fill="#EEEEEE"/>
    <circle cx="574" cy="316" r="4" fill="#EEEEEE"/>
    <circle cx="600" cy="316" r="4" fill="#EEEEEE"/>
    <circle cx="4" cy="340" r="4" fill="#EEEEEE"/>
    <circle cx="30" cy="340" r="4" fill="#EEEEEE"/>
    <circle cx="56" cy="340" r="4" fill="#EEEEEE"/>
    <circle cx="82" cy="340" r="4" fill="#EEEEEE"/>
    <circle cx="108" cy="340" r="4" fill="#EEEEEE"/>
    <circle cx="134" cy="340" r="4" fill="#EEEEEE"/>
    <circle cx="160" cy="340" r="4" fill="#EEEEEE"/>
    <circle cx="186" cy="340" r="4" fill="#EEEEEE"/>
    <circle cx="212" cy="340" r="4" fill="#EEEEEE"/>
    <circle cx="238" cy="340" r="4" fill="#EEEEEE"/>
    <circle cx="264" cy="340" r="4" fill="#EEEEEE"/>
    <circle cx="290" cy="340" r="4" fill="#EEEEEE"/>
    <circle cx="316" cy="340" r="4" fill="#EEEEEE"/>
    <circle cx="340" cy="340" r="4" fill="#EEEEEE"/>
    <circle cx="366" cy="340" r="4" fill="#EEEEEE"/>
    <circle cx="392" cy="340" r="4" fill="#EEEEEE"/>
    <circle cx="418" cy="340" r="4" fill="#EEEEEE"/>
    <circle cx="444" cy="340" r="4" fill="#EEEEEE"/>
    <circle cx="470" cy="340" r="4" fill="#EEEEEE"/>
    <circle cx="496" cy="340" r="4" fill="#EEEEEE"/>
    <circle cx="522" cy="340" r="4" fill="#EEEEEE"/>
    <circle cx="548" cy="340" r="4" fill="#EEEEEE"/>
    <circle cx="574" cy="340" r="4" fill="#EEEEEE"/>
    <circle cx="600" cy="340" r="4" fill="#EEEEEE"/>
    <circle cx="4" cy="366" r="4" fill="#EEEEEE"/>
    <circle cx="30" cy="366" r="4" fill="#EEEEEE"/>
    <circle cx="56" cy="366" r="4" fill="#EEEEEE"/>
    <circle cx="82" cy="366" r="4" fill="#EEEEEE"/>
    <circle cx="108" cy="366" r="4" fill="#EEEEEE"/>
    <circle cx="134" cy="366" r="4" fill="#EEEEEE"/>
    <circle cx="160" cy="366" r="4" fill="#EEEEEE"/>
    <circle cx="186" cy="366" r="4" fill="#EEEEEE"/>
    <circle cx="212" cy="366" r="4" fill="#EEEEEE"/>
    <circle cx="238" cy="366" r="4" fill="#EEEEEE"/>
    <circle cx="264" cy="366" r="4" fill="#EEEEEE"/>
    <circle cx="290" cy="366" r="4" fill="#EEEEEE"/>
    <circle cx="316" cy="366" r="4" fill="#EEEEEE"/>
    <circle cx="340" cy="366" r="4" fill="#EEEEEE"/>
    <circle cx="366" cy="366" r="4" fill="#EEEEEE"/>
    <circle cx="392" cy="366" r="4" fill="#EEEEEE"/>
    <circle cx="418" cy="366" r="4" fill="#EEEEEE"/>
    <circle cx="444" cy="366" r="4" fill="#EEEEEE"/>
    <circle cx="470" cy="366" r="4" fill="#EEEEEE"/>
    <circle cx="496" cy="366" r="4" fill="#EEEEEE"/>
    <circle cx="522" cy="366" r="4" fill="#EEEEEE"/>
    <circle cx="548" cy="366" r="4" fill="#EEEEEE"/>
    <circle cx="574" cy="366" r="4" fill="#EEEEEE"/>
    <circle cx="600" cy="366" r="4" fill="#EEEEEE"/>
    <circle cx="4" cy="392" r="4" fill="#EEEEEE"/>
    <circle cx="30" cy="392" r="4" fill="#EEEEEE"/>
    <circle cx="56" cy="392" r="4" fill="#EEEEEE"/>
    <circle cx="82" cy="392" r="4" fill="#EEEEEE"/>
    <circle cx="108" cy="392" r="4" fill="#EEEEEE"/>
    <circle cx="134" cy="392" r="4" fill="#EEEEEE"/>
    <circle cx="160" cy="392" r="4" fill="#EEEEEE"/>
    <circle cx="186" cy="392" r="4" fill="#EEEEEE"/>
    <circle cx="212" cy="392" r="4" fill="#EEEEEE"/>
    <circle cx="238" cy="392" r="4" fill="#EEEEEE"/>
    <circle cx="264" cy="392" r="4" fill="#EEEEEE"/>
    <circle cx="290" cy="392" r="4" fill="#EEEEEE"/>
    <circle cx="316" cy="392" r="4" fill="#EEEEEE"/>
    <circle cx="340" cy="392" r="4" fill="#EEEEEE"/>
    <circle cx="366" cy="392" r="4" fill="#EEEEEE"/>
    <circle cx="392" cy="392" r="4" fill="#EEEEEE"/>
    <circle cx="418" cy="392" r="4" fill="#EEEEEE"/>
    <circle cx="444" cy="392" r="4" fill="#EEEEEE"/>
    <circle cx="470" cy="392" r="4" fill="#EEEEEE"/>
    <circle cx="496" cy="392" r="4" fill="#EEEEEE"/>
    <circle cx="522" cy="392" r="4" fill="#EEEEEE"/>
    <circle cx="548" cy="392" r="4" fill="#EEEEEE"/>
    <circle cx="574" cy="392" r="4" fill="#EEEEEE"/>
    <circle cx="600" cy="392" r="4" fill="#EEEEEE"/>
    <circle cx="4" cy="418" r="4" fill="#EEEEEE"/>
    <circle cx="30" cy="418" r="4" fill="#EEEEEE"/>
    <circle cx="56" cy="418" r="4" fill="#EEEEEE"/>
    <circle cx="82" cy="418" r="4" fill="#EEEEEE"/>
    <circle cx="108" cy="418" r="4" fill="#EEEEEE"/>
    <circle cx="134" cy="418" r="4" fill="#EEEEEE"/>
    <circle cx="160" cy="418" r="4" fill="#EEEEEE"/>
    <circle cx="186" cy="418" r="4" fill="#EEEEEE"/>
    <circle cx="212" cy="418" r="4" fill="#EEEEEE"/>
    <circle cx="238" cy="418" r="4" fill="#EEEEEE"/>
    <circle cx="264" cy="418" r="4" fill="#EEEEEE"/>
    <circle cx="290" cy="418" r="4" fill="#EEEEEE"/>
    <circle cx="316" cy="418" r="4" fill="#EEEEEE"/>
    <circle cx="340" cy="418" r="4" fill="#EEEEEE"/>
    <circle cx="366" cy="418" r="4" fill="#EEEEEE"/>
    <circle cx="392" cy="418" r="4" fill="#EEEEEE"/>
    <circle cx="418" cy="418" r="4" fill="#EEEEEE"/>
    <circle cx="444" cy="418" r="4" fill="#EEEEEE"/>
    <circle cx="470" cy="418" r="4" fill="#EEEEEE"/>
    <circle cx="496" cy="418" r="4" fill="#EEEEEE"/>
    <circle cx="522" cy="418" r="4" fill="#EEEEEE"/>
    <circle cx="548" cy="418" r="4" fill="#EEEEEE"/>
    <circle cx="574" cy="418" r="4" fill="#EEEEEE"/>
    <circle cx="600" cy="418" r="4" fill="#EEEEEE"/>
    <circle cx="4" cy="444" r="4" fill="#EEEEEE"/>
    <circle cx="30" cy="444" r="4" fill="#EEEEEE"/>
    <circle cx="56" cy="444" r="4" fill="#EEEEEE"/>
    <circle cx="82" cy="444" r="4" fill="#EEEEEE"/>
    <circle cx="108" cy="444" r="4" fill="#EEEEEE"/>
    <circle cx="134" cy="444" r="4" fill="#EEEEEE"/>
    <circle cx="160" cy="444" r="4" fill="#EEEEEE"/>
    <circle cx="186" cy="444" r="4" fill="#EEEEEE"/>
    <circle cx="212" cy="444" r="4" fill="#EEEEEE"/>
    <circle cx="238" cy="444" r="4" fill="#EEEEEE"/>
    <circle cx="264" cy="444" r="4" fill="#EEEEEE"/>
    <circle cx="290" cy="444" r="4" fill="#EEEEEE"/>
    <circle cx="316" cy="444" r="4" fill="#EEEEEE"/>
    <circle cx="340" cy="444" r="4" fill="#EEEEEE"/>
    <circle cx="366" cy="444" r="4" fill="#EEEEEE"/>
    <circle cx="392" cy="444" r="4" fill="#EEEEEE"/>
    <circle cx="418" cy="444" r="4" fill="#EEEEEE"/>
    <circle cx="444" cy="444" r="4" fill="#EEEEEE"/>
    <circle cx="470" cy="444" r="4" fill="#EEEEEE"/>
    <circle cx="496" cy="444" r="4" fill="#EEEEEE"/>
    <circle cx="522" cy="444" r="4" fill="#EEEEEE"/>
    <circle cx="548" cy="444" r="4" fill="#EEEEEE"/>
    <circle cx="574" cy="444" r="4" fill="#EEEEEE"/>
    <circle cx="600" cy="444" r="4" fill="#EEEEEE"/>
</svg>
