<svg width="1174" height="254" fill="none" xmlns="http://www.w3.org/2000/svg"><path d="m281.565 138.421-8.041-5.833-8.028 5.833 3.055-9.416-8.166-5.822 10.065.01 3.074-9.552 3.087 9.542h10.064l-8.164 5.822 3.054 9.416Zm-11.042 41.48-8.04-5.833-8.038 5.833 3.063-9.418-8.166-5.822 10.056.011 3.085-9.552 3.085 9.541h10.056l-8.165 5.822 3.064 9.418Zm-11.125-97.948 3.083-9.552 3.086 9.54h10.057l-8.165 5.812 3.064 9.42-8.042-5.824-8.038 5.823 3.064-9.419-8.166-5.812 10.057.012Zm-22.314-24.345 3.055 9.419-8.029-5.834-8.05 5.834 3.053-9.419-8.154-5.833 10.064.022 3.075-9.552 3.075 9.53h10.076l-8.165 5.833Zm2.939 152.564-8.04-5.823-8.038 5.823 3.052-9.418-8.153-5.823 10.053.012 3.086-9.542 3.075 9.53h10.066l-8.167 5.823 3.066 9.418Zm-41.558 10.97-8.033-5.824-8.041 5.824 3.055-9.418-8.161-5.823 10.066.011 3.075-9.552 3.081 9.541h10.065l-8.166 5.823 3.059 9.418ZM187.341 40.693l3.08-9.54 3.08 9.53h10.067l-8.167 5.822 3.059 9.418-8.039-5.823-8.04 5.823 3.06-9.418-8.16-5.822 10.06.01Zm-30.429 169.479-8.033-5.823-8.039 5.823 3.054-9.418-8.16-5.823 10.065.012 3.075-9.542 3.081 9.53h10.063l-8.158 5.823 3.052 9.418ZM145.73 51.787l3.081-9.552 3.079 9.54h10.066l-8.16 5.824 3.055 9.417-8.035-5.823-8.039 5.823 3.052-9.417-8.158-5.824 10.059.012ZM123.354 87.88l3.058 9.417-8.038-5.824-8.039 5.824 3.059-9.417-8.16-5.824 10.06.012 3.08-9.552 3.081 9.54h10.058l-8.159 5.824Zm3.058 92.021-8.038-5.833-8.039 5.833 3.059-9.418-8.16-5.822 10.06.011 3.08-9.552 3.081 9.541h10.058l-8.159 5.822 3.058 9.418Zm-32.351-56.604 10.065.022 3.08-9.564 3.081 9.542h10.061l-8.162 5.824 3.057 9.415-8.037-5.821-8.038 5.821 3.058-9.415-8.165-5.824ZM0 .995v252.093h380.999V.995H0ZM428.168 61.293V4.983h38.896v9.525h-27.441v13.33h23.686v9.525h-23.686v23.93h-11.455ZM476.428 61.293V20.5h10.876v40.793h-10.876Zm0-46.325V4.983h10.876v9.985h-10.876ZM535.839 61.293h-10.877v-20.82c0-4.404-.232-7.253-.696-8.545-.465-1.293-1.218-2.299-2.265-3.016-1.044-.717-2.302-1.075-3.772-1.075-1.885 0-3.575.512-5.072 1.536-1.495 1.024-2.521 2.382-3.076 4.071-.555 1.69-.832 4.815-.832 9.373v18.476h-10.875V20.5h10.102v5.992c3.585-4.61 8.1-6.913 13.545-6.913 2.4 0 4.592.428 6.579 1.286 1.987.858 3.49 1.952 4.51 3.284a11.88 11.88 0 0 1 2.128 4.532c.4 1.691.601 4.111.601 7.26v25.352ZM569.548 41.703c-1.393.461-3.6 1.012-6.619 1.652-3.019.641-4.992 1.268-5.921 1.883-1.42.998-2.129 2.266-2.129 3.802 0 1.51.567 2.816 1.702 3.918 1.135 1.1 2.58 1.651 4.335 1.651 1.96 0 3.833-.64 5.612-1.92 1.316-.973 2.18-2.163 2.593-3.573.283-.921.427-2.675.427-5.261v-2.152Zm-14.552-8.758-9.87-1.766c1.108-3.944 3.018-6.863 5.728-8.759 2.708-1.893 6.733-2.841 12.075-2.841 4.85 0 8.462.57 10.836 1.71 2.374 1.14 4.045 2.586 5.012 4.34.969 1.754 1.452 4.974 1.452 9.66l-.116 12.598c0 3.587.174 6.23.522 7.932.349 1.704 1 3.528 1.955 5.474h-10.76c-.284-.717-.632-1.78-1.043-3.188a19.569 19.569 0 0 0-.389-1.267c-1.858 1.793-3.845 3.137-5.959 4.033-2.116.896-4.374 1.344-6.774 1.344-4.232 0-7.566-1.14-10.004-3.419-2.439-2.279-3.657-5.158-3.657-8.642 0-2.305.553-4.36 1.663-6.166 1.11-1.804 2.664-3.187 4.664-4.148 2-.96 4.882-1.799 8.651-2.516 5.082-.947 8.605-1.83 10.566-2.65v-1.075c0-2.075-.517-3.553-1.549-4.437-1.032-.883-2.98-1.325-5.844-1.325-1.936 0-3.445.378-4.527 1.134-1.085.755-1.962 2.08-2.632 3.975ZM628.337 61.293h-10.876v-20.82c0-4.404-.232-7.253-.697-8.545-.464-1.293-1.219-2.299-2.264-3.016-1.045-.717-2.303-1.075-3.774-1.075-1.883 0-3.573.512-5.07 1.536-1.496 1.024-2.521 2.382-3.076 4.071-.555 1.69-.832 4.815-.832 9.373v18.476h-10.875V20.5h10.1v5.992c3.586-4.61 8.102-6.913 13.546-6.913 2.401 0 4.592.428 6.58 1.286 1.986.858 3.49 1.952 4.509 3.284a11.878 11.878 0 0 1 2.127 4.532c.401 1.691.602 4.111.602 7.26v25.352ZM634.994 61.293v-8.412l15.403-17.554c2.528-2.868 4.4-4.904 5.613-6.107-1.265.076-2.929.128-4.994.153l-14.512.076V20.5h33.98v7.644L654.771 46.12l-5.535 5.955c3.019-.18 4.89-.27 5.612-.27h16.835v9.488h-36.689ZM678.998 61.293V20.5h10.876v40.793h-10.876Zm0-46.325V4.983h10.876v9.985h-10.876ZM723.7 41.703c-1.394.461-3.601 1.012-6.62 1.652-3.018.641-4.992 1.268-5.92 1.883-1.42.998-2.129 2.266-2.129 3.802 0 1.51.566 2.816 1.703 3.918 1.134 1.1 2.578 1.651 4.334 1.651 1.96 0 3.833-.64 5.612-1.92 1.316-.973 2.18-2.163 2.594-3.573.282-.921.426-2.675.426-5.261v-2.152Zm-14.553-8.758-9.87-1.766c1.109-3.944 3.019-6.863 5.729-8.759 2.708-1.893 6.734-2.841 12.074-2.841 4.852 0 8.463.57 10.838 1.71 2.372 1.14 4.044 2.586 5.011 4.34.968 1.754 1.452 4.974 1.452 9.66l-.117 12.598c0 3.587.175 6.23.523 7.932.349 1.704.999 3.528 1.954 5.474h-10.759c-.285-.717-.633-1.78-1.044-3.188-.181-.64-.31-1.062-.388-1.267-1.858 1.793-3.845 3.137-5.96 4.033-2.116.896-4.374 1.344-6.773 1.344-4.232 0-7.566-1.14-10.005-3.419-2.438-2.279-3.656-5.158-3.656-8.642 0-2.305.553-4.36 1.664-6.166 1.108-1.804 2.663-3.187 4.663-4.148 1.999-.96 4.882-1.799 8.65-2.516 5.083-.947 8.605-1.83 10.567-2.65v-1.075c0-2.075-.518-3.553-1.548-4.437-1.033-.883-2.981-1.325-5.845-1.325-1.935 0-3.444.378-4.528 1.134-1.084.755-1.961 2.08-2.632 3.975ZM763.95 20.5v8.604h-7.431v16.44c0 3.33.07 5.27.213 5.82.141.55.464 1.006.968 1.364.503.358 1.115.538 1.838.538 1.006 0 2.464-.347 4.374-1.038l.929 8.373c-2.53 1.077-5.394 1.614-8.594 1.614-1.96 0-3.728-.327-5.302-.979-1.574-.653-2.728-1.498-3.463-2.534-.736-1.04-1.245-2.44-1.529-4.207-.232-1.255-.348-3.79-.348-7.605V29.103h-4.993V20.5h4.993v-8.105l10.914-6.299V20.5h7.431ZM780.126 40.898c0 4.045.968 7.143 2.903 9.294 1.934 2.15 4.321 3.227 7.16 3.227 2.837 0 5.217-1.076 7.141-3.227 1.921-2.15 2.883-5.275 2.883-9.372 0-3.995-.962-7.068-2.883-9.218-1.924-2.152-4.304-3.227-7.141-3.227-2.839 0-5.226 1.075-7.16 3.227-1.935 2.15-2.903 5.249-2.903 9.296Zm-11.146-.578c0-3.584.891-7.054 2.669-10.41 1.782-3.354 4.303-5.914 7.568-7.682 3.263-1.767 6.909-2.65 10.934-2.65 6.217 0 11.313 2.005 15.287 6.012 3.972 4.008 5.959 9.071 5.959 15.192 0 6.172-2.005 11.286-6.017 15.345-4.014 4.058-9.063 6.088-15.154 6.088-3.765 0-7.359-.846-10.777-2.535-3.419-1.69-6.018-4.168-7.8-7.433-1.778-3.264-2.669-7.24-2.669-11.927ZM436.681 134.413c0 4.352.608 7.504 1.821 9.45 1.754 2.815 4.205 4.224 7.354 4.224 2.501 0 4.63-1.056 6.385-3.168 1.754-2.112 2.632-5.27 2.632-9.47 0-4.685-.852-8.058-2.556-10.121-1.702-2.06-3.883-3.092-6.539-3.092-2.581 0-4.741 1.017-6.482 3.055-1.743 2.034-2.615 5.076-2.615 9.122Zm29.029 21.281h-10.102V149.7c-1.678 2.331-3.657 4.066-5.941 5.206-2.284 1.138-4.587 1.708-6.908 1.708-4.722 0-8.767-1.887-12.133-5.665-3.368-3.777-5.051-9.045-5.051-15.806 0-6.915 1.639-12.17 4.914-15.768 3.277-3.598 7.419-5.398 12.424-5.398 4.592 0 8.566 1.896 11.921 5.686V99.381h10.876v56.313ZM499.109 136.103c-1.393.461-3.601 1.012-6.619 1.652-3.019.641-4.991 1.268-5.921 1.882-1.419.999-2.129 2.267-2.129 3.802 0 1.512.567 2.817 1.703 3.918 1.135 1.102 2.58 1.652 4.334 1.652 1.96 0 3.833-.641 5.612-1.921 1.318-.972 2.18-2.164 2.594-3.572.283-.923.426-2.675.426-5.263v-2.15Zm-14.552-8.758-9.871-1.766c1.11-3.944 3.021-6.863 5.729-8.759 2.71-1.895 6.735-2.843 12.075-2.843 4.851 0 8.462.571 10.837 1.711 2.373 1.139 4.045 2.587 5.011 4.34.969 1.753 1.452 4.975 1.452 9.66l-.117 12.599c0 3.585.175 6.229.523 7.932.349 1.702 1 3.528 1.955 5.475h-10.76c-.285-.718-.631-1.781-1.044-3.19-.181-.64-.309-1.062-.388-1.267-1.858 1.794-3.843 3.136-5.959 4.032-2.116.897-4.373 1.345-6.774 1.345-4.232 0-7.565-1.138-10.004-3.418-2.437-2.278-3.657-5.16-3.657-8.643 0-2.304.555-4.358 1.664-6.165 1.109-1.804 2.663-3.188 4.663-4.148 2.001-.96 4.882-1.799 8.651-2.516 5.082-.947 8.604-1.831 10.566-2.651v-1.074c0-2.075-.517-3.554-1.548-4.438-1.033-.882-2.981-1.325-5.845-1.325-1.935 0-3.443.379-4.528 1.133-1.084.756-1.961 2.082-2.631 3.976ZM520.511 155.694V99.381h10.877v56.313h-10.877ZM542.531 155.694V99.381h10.877v56.313h-10.877ZM564.478 119.393l-2.051-10.485v-9.527h11.842v9.527l-1.78 10.485h-8.011ZM583.401 99.381h11.457v30.499c0 4.84.141 7.977.426 9.412.489 2.304 1.656 4.153 3.502 5.549 1.846 1.396 4.366 2.094 7.566 2.094 3.251 0 5.702-.659 7.354-1.978 1.65-1.318 2.645-2.938 2.98-4.86.336-1.92.504-5.108.504-9.564V99.381h11.455v29.578c0 6.76-.309 11.536-.928 14.326-.62 2.792-1.761 5.147-3.426 7.069-1.663 1.919-3.891 3.452-6.677 4.59-2.786 1.139-6.423 1.708-10.913 1.708-5.418 0-9.529-.621-12.327-1.862-2.8-1.242-5.011-2.855-6.638-4.839-1.624-1.984-2.696-4.066-3.212-6.243-.748-3.227-1.123-7.989-1.123-14.288V99.381ZM678.031 155.694h-10.876v-20.821c0-4.404-.233-7.253-.696-8.546-.465-1.292-1.22-2.298-2.265-3.015-1.044-.717-2.303-1.076-3.774-1.076-1.883 0-3.573.513-5.07 1.537-1.495 1.024-2.522 2.382-3.076 4.071-.555 1.691-.832 4.815-.832 9.373v18.477h-10.875V114.9h10.101v5.992c3.586-4.609 8.101-6.915 13.546-6.915 2.399 0 4.592.43 6.579 1.287 1.987.859 3.49 1.953 4.51 3.285a11.912 11.912 0 0 1 2.128 4.532c.399 1.691.6 4.111.6 7.26v25.353ZM689.061 155.694V114.9h10.875v40.794h-10.875Zm0-46.326v-9.987h10.875v9.987h-10.875ZM719.712 135.296c0 4.047.968 7.144 2.903 9.295 1.935 2.152 4.321 3.227 7.16 3.227 2.838 0 5.217-1.075 7.141-3.227 1.921-2.151 2.883-5.274 2.883-9.371 0-3.995-.962-7.068-2.883-9.219-1.924-2.152-4.303-3.226-7.141-3.226-2.839 0-5.225 1.074-7.16 3.226-1.935 2.151-2.903 5.25-2.903 9.295Zm-11.146-.576c0-3.584.891-7.055 2.671-10.409 1.781-3.355 4.303-5.916 7.566-7.683 3.263-1.767 6.909-2.651 10.934-2.651 6.217 0 11.313 2.004 15.287 6.012 3.972 4.008 5.959 9.072 5.959 15.192 0 6.172-2.005 11.287-6.017 15.346-4.013 4.058-9.063 6.087-15.153 6.087-3.767 0-7.36-.845-10.778-2.534-3.419-1.691-6.017-4.168-7.798-7.433-1.78-3.266-2.671-7.24-2.671-11.927ZM796.886 155.694H786.01v-20.821c0-4.404-.232-7.253-.697-8.546-.463-1.292-1.218-2.298-2.264-3.015-1.045-.717-2.302-1.076-3.773-1.076-1.884 0-3.574.513-5.07 1.537-1.497 1.024-2.522 2.382-3.077 4.071-.555 1.691-.833 4.815-.833 9.373v18.477h-10.873V114.9h10.1v5.992c3.585-4.609 8.102-6.915 13.545-6.915 2.4 0 4.592.43 6.58 1.287 1.986.859 3.489 1.953 4.509 3.285a11.882 11.882 0 0 1 2.128 4.532c.4 1.691.601 4.111.601 7.26v25.353ZM832.336 131.801c-.077-3.124-.891-5.498-2.438-7.125-1.549-1.627-3.432-2.44-5.65-2.44-2.375 0-4.335.859-5.883 2.573-1.548 1.718-2.31 4.047-2.283 6.992h16.254Zm-.619 10.908 10.837 1.806c-1.393 3.944-3.594 6.946-6.599 9.008-3.007 2.061-6.768 3.091-11.282 3.091-7.147 0-12.437-2.317-15.867-6.953-2.71-3.712-4.064-8.398-4.064-14.057 0-6.761 1.779-12.055 5.34-15.884 3.56-3.828 8.063-5.743 13.507-5.743 6.115 0 10.939 2.004 14.475 6.012 3.535 4.008 5.225 10.148 5.07 18.419h-27.246c.077 3.201.954 5.691 2.632 7.471 1.677 1.78 3.767 2.669 6.268 2.669 1.704 0 3.136-.461 4.297-1.382 1.16-.922 2.038-2.409 2.632-4.457ZM898.44 131.801c-.077-3.124-.891-5.498-2.439-7.125-1.549-1.627-3.431-2.44-5.649-2.44-2.375 0-4.335.859-5.883 2.573-1.549 1.718-2.31 4.047-2.284 6.992h16.255Zm-.62 10.908 10.838 1.806c-1.393 3.944-3.594 6.946-6.599 9.008-3.007 2.061-6.768 3.091-11.282 3.091-7.147 0-12.438-2.317-15.868-6.953-2.709-3.712-4.063-8.398-4.063-14.057 0-6.761 1.778-12.055 5.34-15.884 3.56-3.828 8.063-5.743 13.507-5.743 6.115 0 10.939 2.004 14.475 6.012 3.535 4.008 5.226 10.148 5.07 18.419h-27.246c.077 3.201.954 5.691 2.632 7.471 1.676 1.78 3.767 2.669 6.268 2.669 1.704 0 3.136-.461 4.297-1.382 1.162-.922 2.038-2.409 2.631-4.457ZM945.154 155.694v-6.109c-1.498 2.176-3.464 3.893-5.904 5.147a16.633 16.633 0 0 1-7.72 1.882c-2.762 0-5.238-.602-7.431-1.805-2.194-1.203-3.78-2.893-4.761-5.07-.981-2.176-1.47-5.186-1.47-9.027V114.9h10.876v18.744c0 5.736.198 9.252.599 10.545.4 1.292 1.128 2.318 2.187 3.072 1.057.757 2.399 1.134 4.025 1.134 1.858 0 3.522-.506 4.992-1.517 1.472-1.013 2.477-2.267 3.02-3.765.54-1.498.813-5.166.813-11.005V114.9h10.873v40.794h-10.099ZM976.928 155.694h-10.876V114.9h10.102v5.8c1.728-2.74 3.282-4.545 4.665-5.416 1.379-.871 2.946-1.307 4.702-1.307 2.476 0 4.863.68 7.159 2.036l-3.367 9.411c-1.832-1.177-3.536-1.767-5.109-1.767-1.523 0-2.813.418-3.87 1.25-1.059.832-1.89 2.336-2.496 4.513-.606 2.176-.91 6.735-.91 13.673v12.601ZM1005.99 135.296c0 4.047.97 7.144 2.91 9.295 1.93 2.152 4.32 3.227 7.16 3.227 2.83 0 5.21-1.075 7.14-3.227 1.92-2.151 2.88-5.274 2.88-9.371 0-3.995-.96-7.068-2.88-9.219-1.93-2.152-4.31-3.226-7.14-3.226-2.84 0-5.23 1.074-7.16 3.226-1.94 2.151-2.91 5.25-2.91 9.295Zm-11.143-.576c0-3.584.891-7.055 2.669-10.409 1.782-3.355 4.304-5.916 7.564-7.683 3.27-1.767 6.91-2.651 10.94-2.651 6.22 0 11.31 2.004 15.28 6.012 3.98 4.008 5.96 9.072 5.96 15.192 0 6.172-2 11.287-6.01 15.346-4.02 4.058-9.07 6.087-15.16 6.087-3.76 0-7.36-.845-10.77-2.534-3.42-1.691-6.022-4.168-7.804-7.433-1.778-3.266-2.669-7.24-2.669-11.927ZM1056.23 134.605c0 4.584.91 7.971 2.75 10.159 1.83 2.191 4.06 3.284 6.69 3.284 2.53 0 4.63-1.004 6.31-3.015 1.68-2.009 2.52-5.306 2.52-9.89 0-4.276-.87-7.452-2.6-9.527-1.73-2.073-3.87-3.111-6.42-3.111-2.66 0-4.86 1.019-6.62 3.054-1.75 2.036-2.63 5.052-2.63 9.046Zm-10.76-19.705h10.14v5.992c1.32-2.048 3.1-3.713 5.34-4.993 2.25-1.28 4.73-1.922 7.47-1.922 4.77 0 8.82 1.858 12.15 5.571 3.33 3.713 4.99 8.885 4.99 15.517 0 6.812-1.67 12.107-5.03 15.884-3.35 3.778-7.41 5.666-12.19 5.666-2.27 0-4.33-.449-6.17-1.346-1.85-.896-3.79-2.432-5.82-4.609v20.551h-10.88V114.9ZM1118.62 131.801c-.08-3.124-.89-5.498-2.44-7.125-1.55-1.627-3.43-2.44-5.65-2.44-2.37 0-4.33.859-5.88 2.573-1.55 1.718-2.31 4.047-2.29 6.992h16.26Zm-.62 10.908 10.84 1.806c-1.4 3.944-3.6 6.946-6.6 9.008-3.01 2.061-6.77 3.091-11.28 3.091-7.15 0-12.44-2.317-15.87-6.953-2.71-3.712-4.07-8.398-4.07-14.057 0-6.761 1.78-12.055 5.34-15.884 3.56-3.828 8.07-5.743 13.51-5.743 6.12 0 10.94 2.004 14.48 6.012 3.53 4.008 5.22 10.148 5.07 18.419h-27.25c.08 3.201.95 5.691 2.63 7.471 1.68 1.78 3.77 2.669 6.27 2.669 1.7 0 3.14-.461 4.3-1.382 1.16-.922 2.03-2.409 2.63-4.457ZM1160.96 136.103c-1.4.461-3.6 1.012-6.62 1.652-3.02.641-4.99 1.268-5.92 1.882-1.42.999-2.13 2.267-2.13 3.802 0 1.512.57 2.817 1.7 3.918 1.14 1.102 2.58 1.652 4.34 1.652 1.96 0 3.83-.641 5.61-1.921 1.32-.972 2.18-2.164 2.59-3.572.29-.923.43-2.675.43-5.263v-2.15Zm-14.55-8.758-9.87-1.766c1.11-3.944 3.02-6.863 5.72-8.759 2.71-1.895 6.74-2.843 12.08-2.843 4.85 0 8.46.571 10.84 1.711 2.37 1.139 4.04 2.587 5.01 4.34.97 1.753 1.45 4.975 1.45 9.66l-.12 12.599c0 3.585.18 6.229.53 7.932.34 1.702.99 3.528 1.95 5.475h-10.76c-.28-.718-.63-1.781-1.04-3.19-.18-.64-.31-1.062-.39-1.267-1.86 1.794-3.85 3.136-5.96 4.032-2.12.897-4.37 1.345-6.77 1.345-4.24 0-7.57-1.138-10.01-3.418-2.44-2.278-3.65-5.16-3.65-8.643 0-2.304.55-4.358 1.66-6.165 1.11-1.804 2.66-3.188 4.66-4.148 2-.96 4.88-1.799 8.65-2.516 5.08-.947 8.61-1.831 10.57-2.651v-1.074c0-2.075-.52-3.554-1.55-4.438-1.03-.882-2.98-1.325-5.84-1.325-1.94 0-3.45.379-4.53 1.133-1.09.756-1.96 2.082-2.63 3.976ZM428.065 248v-48.676h6.608l25.566 38.217v-38.217h6.176V248h-6.608l-25.566-38.25V248h-6.176ZM500.647 236.645l6.176.763c-.974 3.608-2.778 6.408-5.412 8.401-2.634 1.992-5.999 2.988-10.094 2.988-5.157 0-9.252-1.583-12.285-4.748-3.01-3.188-4.516-7.648-4.516-13.381 0-5.932 1.528-10.537 4.582-13.813 3.055-3.276 7.017-4.914 11.887-4.914 4.715 0 8.567 1.605 11.555 4.815 2.988 3.209 4.482 7.725 4.482 13.547 0 .354-.011.885-.033 1.593h-26.297c.222 3.874 1.317 6.84 3.287 8.899 1.97 2.058 4.427 3.088 7.371 3.088 2.192 0 4.062-.576 5.612-1.727 1.549-1.151 2.778-2.988 3.685-5.511Zm-19.623-9.663h19.69c-.266-2.966-1.019-5.19-2.258-6.673-1.904-2.303-4.372-3.454-7.404-3.454-2.745 0-5.058.919-6.94 2.756-1.859 1.838-2.889 4.295-3.088 7.371ZM510.376 248l12.883-18.328-11.92-16.934h7.47l5.412 8.268a100.719 100.719 0 0 1 2.457 3.951 120.518 120.518 0 0 1 2.69-3.885l5.943-8.334h7.139l-12.186 16.602L543.38 248h-7.338l-7.239-10.957-1.925-2.955L517.614 248h-7.238ZM561.409 242.654l.863 5.28c-1.682.354-3.187.531-4.515.531-2.17 0-3.852-.343-5.047-1.029-1.196-.687-2.037-1.583-2.524-2.69-.487-1.129-.73-3.486-.73-7.072v-20.287h-4.383v-4.649h4.383v-8.732l5.943-3.586v12.318h6.01v4.649h-6.01v20.619c0 1.704.1 2.8.299 3.287.221.487.564.874 1.029 1.162.487.288 1.173.432 2.059.432.664 0 1.538-.078 2.623-.233ZM590.827 228.908v-5.711l20.619-.033v18.063c-3.165 2.523-6.43 4.427-9.795 5.71a29.27 29.27 0 0 1-10.359 1.893c-4.782 0-9.131-1.018-13.049-3.055-3.896-2.058-6.84-5.024-8.832-8.898-1.992-3.874-2.988-8.201-2.988-12.982 0-4.737.985-9.153 2.955-13.249 1.992-4.117 4.847-7.171 8.566-9.164 3.719-1.992 8.002-2.988 12.85-2.988 3.519 0 6.696.576 9.529 1.727 2.855 1.129 5.091 2.711 6.707 4.748 1.616 2.036 2.844 4.692 3.686 7.968l-5.811 1.594c-.73-2.479-1.638-4.427-2.723-5.844-1.084-1.416-2.634-2.545-4.648-3.386-2.014-.864-4.25-1.295-6.707-1.295-2.944 0-5.49.454-7.637 1.361-2.147.886-3.885 2.059-5.213 3.52a17.03 17.03 0 0 0-3.054 4.814c-1.24 3.011-1.86 6.276-1.86 9.795 0 4.339.742 7.969 2.225 10.891 1.505 2.922 3.685 5.091 6.541 6.508a20.208 20.208 0 0 0 9.098 2.125c2.789 0 5.511-.532 8.167-1.594 2.657-1.085 4.671-2.236 6.043-3.453v-9.065h-14.31ZM644.35 236.645l6.176.763c-.974 3.608-2.778 6.408-5.412 8.401-2.634 1.992-5.999 2.988-10.094 2.988-5.157 0-9.252-1.583-12.285-4.748-3.01-3.188-4.516-7.648-4.516-13.381 0-5.932 1.528-10.537 4.583-13.813 3.054-3.276 7.016-4.914 11.886-4.914 4.715 0 8.567 1.605 11.555 4.815 2.988 3.209 4.482 7.725 4.482 13.547 0 .354-.011.885-.033 1.593h-26.297c.222 3.874 1.317 6.84 3.287 8.899 1.97 2.058 4.427 3.088 7.371 3.088 2.192 0 4.062-.576 5.612-1.727 1.549-1.151 2.778-2.988 3.685-5.511Zm-19.623-9.663h19.69c-.266-2.966-1.018-5.19-2.258-6.673-1.904-2.303-4.372-3.454-7.404-3.454-2.745 0-5.058.919-6.94 2.756-1.859 1.838-2.888 4.295-3.088 7.371ZM658.063 248v-35.262h5.379v5.014c2.59-3.874 6.331-5.811 11.223-5.811 2.125 0 4.073.388 5.844 1.162 1.793.753 3.132 1.749 4.017 2.989.886 1.239 1.505 2.711 1.859 4.416.222 1.107.333 3.043.333 5.81V248h-5.977v-21.449c0-2.435-.232-4.25-.697-5.446-.465-1.217-1.295-2.18-2.491-2.888-1.173-.731-2.556-1.096-4.15-1.096-2.545 0-4.748.808-6.607 2.424-1.838 1.616-2.756 4.682-2.756 9.197V248h-5.977ZM720.053 236.645l6.176.763c-.974 3.608-2.778 6.408-5.412 8.401-2.634 1.992-5.999 2.988-10.094 2.988-5.157 0-9.252-1.583-12.285-4.748-3.01-3.188-4.515-7.648-4.515-13.381 0-5.932 1.527-10.537 4.582-13.813 3.054-3.276 7.017-4.914 11.886-4.914 4.715 0 8.567 1.605 11.555 4.815 2.988 3.209 4.482 7.725 4.482 13.547 0 .354-.011.885-.033 1.593h-26.297c.222 3.874 1.317 6.84 3.287 8.899 1.971 2.058 4.428 3.088 7.372 3.088 2.191 0 4.061-.576 5.611-1.727 1.549-1.151 2.778-2.988 3.685-5.511Zm-19.623-9.663h19.69c-.266-2.966-1.018-5.19-2.258-6.673-1.904-2.303-4.372-3.454-7.404-3.454-2.745 0-5.058.919-6.94 2.756-1.859 1.838-2.888 4.295-3.088 7.371ZM733.7 248v-35.262h5.379v5.346c1.372-2.501 2.634-4.15 3.785-4.947a6.712 6.712 0 0 1 3.852-1.196c2.014 0 4.061.642 6.142 1.926l-2.058 5.545c-1.461-.863-2.922-1.295-4.383-1.295a5.648 5.648 0 0 0-3.52 1.195c-1.04.775-1.782 1.86-2.224 3.254-.664 2.125-.996 4.45-.996 6.973V248H733.7ZM779.421 243.65c-2.214 1.882-4.35 3.21-6.409 3.985-2.036.774-4.227 1.162-6.574 1.162-3.873 0-6.851-.941-8.931-2.822-2.081-1.904-3.122-4.328-3.122-7.272 0-1.726.388-3.298 1.163-4.715.796-1.439 1.826-2.59 3.087-3.453 1.284-.863 2.723-1.516 4.317-1.959 1.173-.31 2.944-.609 5.312-.896 4.826-.576 8.379-1.262 10.659-2.059.022-.819.033-1.339.033-1.56 0-2.435-.565-4.151-1.694-5.147-1.527-1.35-3.796-2.025-6.806-2.025-2.811 0-4.892.498-6.242 1.494-1.329.974-2.314 2.711-2.955 5.213l-5.844-.797c.531-2.502 1.405-4.516 2.623-6.043 1.217-1.55 2.977-2.734 5.279-3.553 2.302-.841 4.97-1.262 8.002-1.262 3.011 0 5.456.355 7.338 1.063 1.881.708 3.265 1.605 4.15 2.689.886 1.063 1.506 2.413 1.86 4.051.199 1.018.299 2.856.299 5.512v7.969c0 5.556.121 9.075.365 10.558a13.618 13.618 0 0 0 1.527 4.217h-6.242c-.62-1.24-1.018-2.689-1.195-4.35Zm-.498-13.347c-2.17.885-5.424 1.638-9.762 2.258-2.457.354-4.195.752-5.213 1.195-1.018.443-1.804 1.096-2.357 1.959a5.019 5.019 0 0 0-.831 2.822c0 1.594.598 2.922 1.793 3.984 1.218 1.063 2.989 1.594 5.313 1.594 2.302 0 4.35-.498 6.143-1.494 1.793-1.018 3.11-2.402 3.951-4.15.642-1.351.963-3.343.963-5.977v-2.191ZM807.311 242.654l.864 5.28c-1.683.354-3.188.531-4.516.531-2.169 0-3.852-.343-5.047-1.029-1.195-.687-2.036-1.583-2.523-2.69-.487-1.129-.731-3.486-.731-7.072v-20.287h-4.383v-4.649h4.383v-8.732l5.944-3.586v12.318h6.009v4.649h-6.009v20.619c0 1.704.099 2.8.298 3.287a2.62 2.62 0 0 0 1.03 1.162c.487.288 1.173.432 2.058.432.664 0 1.539-.078 2.623-.233ZM813.221 206.197v-6.873h5.977v6.873h-5.977Zm0 41.803v-35.262h5.977V248h-5.977ZM826.104 230.369c0-6.53 1.815-11.366 5.446-14.51 3.032-2.612 6.729-3.918 11.089-3.918 4.848 0 8.81 1.594 11.887 4.782 3.077 3.165 4.615 7.548 4.615 13.148 0 4.538-.686 8.113-2.058 10.725-1.35 2.59-3.332 4.604-5.944 6.043-2.589 1.438-5.423 2.158-8.5 2.158-4.936 0-8.931-1.583-11.986-4.748-3.032-3.166-4.549-7.725-4.549-13.68Zm6.143 0c0 4.516.985 7.902 2.955 10.16 1.97 2.236 4.449 3.354 7.437 3.354 2.967 0 5.435-1.129 7.405-3.387 1.97-2.258 2.955-5.7 2.955-10.326 0-4.361-.996-7.659-2.989-9.895-1.97-2.257-4.427-3.386-7.371-3.386-2.988 0-5.467 1.117-7.437 3.353-1.97 2.236-2.955 5.611-2.955 10.127ZM866.18 248v-35.262h5.379v5.014c2.59-3.874 6.331-5.811 11.223-5.811 2.125 0 4.073.388 5.844 1.162 1.793.753 3.132 1.749 4.017 2.989.886 1.239 1.506 2.711 1.86 4.416.221 1.107.332 3.043.332 5.81V248h-5.977v-21.449c0-2.435-.232-4.25-.697-5.446-.465-1.217-1.295-2.18-2.49-2.888-1.174-.731-2.557-1.096-4.151-1.096-2.545 0-4.748.808-6.607 2.424-1.837 1.616-2.756 4.682-2.756 9.197V248h-5.977ZM904.928 248v-48.676h35.196v5.744H911.37v14.909h26.928v5.71H911.37v16.569h29.883V248h-36.325ZM982.093 199.324h6.441v28.123c0 4.892-.553 8.777-1.66 11.655-1.107 2.877-3.11 5.223-6.01 7.039-2.878 1.793-6.663 2.689-11.355 2.689-4.56 0-8.29-.786-11.19-2.357-2.9-1.572-4.969-3.841-6.209-6.807-1.239-2.988-1.859-7.061-1.859-12.219v-28.123h6.441v28.09c0 4.228.388 7.349 1.162 9.363.797 1.993 2.147 3.531 4.051 4.616 1.926 1.084 4.272 1.627 7.039 1.627 4.737 0 8.113-1.074 10.127-3.221 2.014-2.147 3.022-6.276 3.022-12.385v-28.09Z" fill="#100F0D"/></svg>