<svg width="1174" height="270" fill="none" xmlns="http://www.w3.org/2000/svg"><g clip-path="url(#a)"><path d="M0 266.719h393.261V-.327H0V266.72Z" fill="#fff"/><path d="M7.563 259.089h378.135V6.996H7.563v252.093Z" fill="#264CA4"/><path d="m188.574 61.922 7.977-5.822 7.98 5.822-3.037-9.415 8.107-5.825h-9.992l-3.058-9.529-3.057 9.54-9.983-.01 8.098 5.824-3.035 9.416ZM147.281 73.016l7.98-5.823 7.974 5.823-3.032-9.418 8.099-5.822h-9.989l-3.058-9.54-3.057 9.552-9.984-.012 8.099 5.822-3.032 9.418ZM125.047 78.516l-3.057 9.553-9.985-.012 8.1 5.823-3.036 9.417 7.978-5.822 7.978 5.822-3.035-9.417 8.097-5.823h-9.982l-3.058-9.541ZM113.965 138.715l7.973 5.822-3.031-9.414 8.098-5.826h-9.984l-3.056-9.54-3.058 9.562-9.99-.022 8.104 5.826-3.036 9.414 7.98-5.822ZM128.105 170.663l-3.058-9.542-3.057 9.552-9.985-.01 8.1 5.821-3.036 9.419 7.978-5.834 7.978 5.834-3.035-9.419 8.097-5.821h-9.982ZM158.375 200.932l-3.057-9.529-3.052 9.541-9.991-.012 8.1 5.823-3.03 9.418 7.978-5.824 7.974 5.824-3.031-9.418 8.097-5.823h-9.988ZM199.614 211.903l-3.057-9.543-3.052 9.552-9.988-.009 8.097 5.822-3.031 9.416 7.98-5.822 7.974 5.822-3.038-9.416 8.106-5.822h-9.991ZM240.854 200.932l-3.052-9.529-3.061 9.541-9.979-.012 8.092 5.823-3.029 9.418 7.977-5.824 7.979 5.824-3.04-9.418 8.104-5.823h-9.991ZM271.135 170.663l-3.061-9.542-3.063 9.552-9.98-.01 8.104 5.821-3.04 9.419 7.979-5.834 7.977 5.834-3.04-9.419 8.103-5.821h-9.979ZM292.083 129.183h-9.988l-3.064-9.542-3.05 9.552-9.99-.01 8.104 5.824-3.032 9.416 7.968-5.832 7.98 5.832-3.03-9.416 8.102-5.824ZM260.094 103.172l7.979-5.823 7.978 5.823-3.04-9.418 8.103-5.812h-9.98l-3.061-9.54-3.062 9.552-9.981-.011 8.104 5.811-3.04 9.418ZM237.917 48.245l-3.052 9.553-9.988-.022 8.092 5.833-3.031 9.417 7.991-5.833 7.968 5.834-3.032-9.418 8.104-5.833h-10l-3.052-9.53Z" fill="#F5F014"/><path d="M432.511 63.293V6.983h38.604v9.526h-27.234v13.328h23.508v9.527h-23.508v23.93h-11.37ZM480.41 63.293V22.501h10.793v40.792H480.41Zm0-46.324V6.983h10.793v9.986H480.41ZM539.373 63.293h-10.795V42.474c0-4.403-.229-7.253-.691-8.546-.461-1.292-1.209-2.297-2.248-3.015-1.036-.717-2.285-1.076-3.744-1.076-1.87 0-3.546.512-5.033 1.538-1.484 1.023-2.503 2.38-3.053 4.07-.551 1.69-.826 4.815-.826 9.372v18.476H502.19V22.501h10.025v5.992c3.559-4.61 8.04-6.915 13.444-6.915 2.382 0 4.558.43 6.53 1.287 1.972.859 3.464 1.954 4.476 3.286 1.01 1.33 1.714 2.84 2.112 4.532.397 1.689.596 4.11.596 7.26v25.35ZM572.829 43.704c-1.383.461-3.574 1.012-6.57 1.652-2.996.64-4.954 1.268-5.876 1.883-1.409.997-2.113 2.265-2.113 3.802 0 1.51.563 2.816 1.691 3.918 1.125 1.1 2.56 1.651 4.301 1.651 1.945 0 3.804-.64 5.569-1.92 1.307-.973 2.164-2.163 2.575-3.573.281-.921.423-2.676.423-5.262v-2.151Zm-14.443-8.758-9.796-1.767c1.1-3.943 2.996-6.862 5.685-8.758 2.69-1.895 6.684-2.843 11.984-2.843 4.815 0 8.399.571 10.756 1.71 2.355 1.14 4.014 2.587 4.974 4.341.961 1.753 1.441 4.973 1.441 9.66l-.116 12.599c0 3.585.173 6.23.519 7.932.346 1.704.992 3.528 1.94 5.473h-10.679c-.283-.716-.628-1.779-1.036-3.188-.18-.64-.308-1.063-.385-1.266-1.844 1.793-3.816 3.137-5.915 4.033-2.1.895-4.341 1.344-6.723 1.344-4.2 0-7.509-1.14-9.929-3.419-2.419-2.278-3.629-5.16-3.629-8.642 0-2.306.549-4.36 1.652-6.166 1.1-1.805 2.642-3.188 4.628-4.148 1.985-.96 4.845-1.799 8.585-2.516 5.044-.948 8.54-1.83 10.487-2.65v-1.076c0-2.074-.514-3.552-1.536-4.436-1.026-.883-2.959-1.326-5.802-1.326-1.92 0-3.417.379-4.493 1.134-1.076.756-1.947 2.08-2.612 3.976ZM631.177 63.293h-10.795V42.474c0-4.403-.231-7.253-.692-8.546-.46-1.292-1.209-2.297-2.247-3.015-1.036-.717-2.285-1.076-3.745-1.076-1.869 0-3.547.512-5.032 1.538-1.484 1.023-2.503 2.38-3.053 4.07-.551 1.69-.826 4.815-.826 9.372v18.476h-10.793V22.501h10.025v5.992c3.558-4.61 8.041-6.915 13.445-6.915 2.381 0 4.557.43 6.529 1.287 1.972.859 3.464 1.954 4.474 3.286a11.878 11.878 0 0 1 2.112 4.532c.398 1.689.598 4.11.598 7.26v25.35ZM637.783 63.293v-8.412l15.288-17.553c2.508-2.868 4.366-4.904 5.57-6.108-1.255.077-2.907.128-4.955.155l-14.404.076V22.5h33.724v7.644l-15.595 17.976-5.493 5.953c2.996-.178 4.853-.267 5.569-.267h16.71v9.486h-36.414ZM681.457 63.293V22.501h10.793v40.792h-10.793Zm0-46.324V6.983h10.793v9.986h-10.793ZM725.822 43.704c-1.383.461-3.573 1.012-6.569 1.652-2.996.64-4.954 1.268-5.876 1.883-1.41.997-2.114 2.265-2.114 3.802 0 1.51.563 2.816 1.691 3.918 1.125 1.1 2.56 1.651 4.301 1.651 1.946 0 3.804-.64 5.57-1.92 1.308-.973 2.164-2.163 2.574-3.573.282-.921.423-2.676.423-5.262v-2.151Zm-14.443-8.758-9.796-1.767c1.102-3.943 2.996-6.862 5.686-8.758 2.689-1.895 6.684-2.843 11.984-2.843 4.814 0 8.398.571 10.756 1.71 2.354 1.14 4.013 2.587 4.973 4.341.961 1.753 1.441 4.973 1.441 9.66l-.116 12.599c0 3.585.174 6.23.519 7.932.347 1.704.992 3.528 1.94 5.473h-10.679c-.282-.716-.626-1.779-1.036-3.188-.18-.64-.308-1.063-.385-1.266-1.844 1.793-3.815 3.137-5.915 4.033-2.1.895-4.341 1.344-6.722 1.344-4.2 0-7.508-1.14-9.93-3.419-2.418-2.278-3.629-5.16-3.629-8.642 0-2.306.551-4.36 1.652-6.166 1.1-1.805 2.643-3.188 4.628-4.148 1.985-.96 4.845-1.799 8.585-2.516 5.044-.948 8.54-1.83 10.487-2.65v-1.076c0-2.074-.513-3.552-1.536-4.436-1.025-.883-2.959-1.326-5.801-1.326-1.92 0-3.418.379-4.494 1.134-1.076.756-1.946 2.08-2.612 3.976ZM765.77 22.501v8.604h-7.375v16.44c0 3.33.071 5.27.211 5.819.14.552.461 1.005.961 1.364.499.358 1.107.537 1.824.537.999 0 2.446-.345 4.342-1.036l.921 8.373c-2.511 1.075-5.352 1.614-8.528 1.614-1.945 0-3.701-.328-5.263-.98-1.562-.653-2.708-1.497-3.437-2.535-.731-1.037-1.236-2.438-1.516-4.206-.232-1.254-.347-3.79-.347-7.606V31.105h-4.956v-8.604h4.956v-8.105l10.832-6.3V22.5h7.375ZM781.825 42.897c0 4.047.96 7.144 2.881 9.296 1.92 2.15 4.288 3.227 7.105 3.227 2.818 0 5.179-1.076 7.088-3.227 1.907-2.152 2.862-5.274 2.862-9.373 0-3.995-.955-7.067-2.862-9.219-1.909-2.15-4.27-3.226-7.088-3.226-2.817 0-5.185 1.076-7.105 3.226-1.921 2.152-2.881 5.25-2.881 9.296Zm-11.063-.576c0-3.585.884-7.054 2.651-10.41 1.768-3.354 4.27-5.915 7.509-7.682 3.239-1.767 6.857-2.65 10.852-2.65 6.171 0 11.228 2.003 15.172 6.011 3.943 4.009 5.916 9.073 5.916 15.192 0 6.173-1.992 11.287-5.973 15.345-3.983 4.06-8.995 6.089-15.039 6.089-3.739 0-7.305-.845-10.697-2.535-3.394-1.69-5.972-4.17-7.74-7.433-1.767-3.265-2.651-7.24-2.651-11.927ZM440.962 136.413c0 4.354.601 7.503 1.805 9.45 1.742 2.817 4.174 4.225 7.299 4.225 2.483 0 4.596-1.056 6.339-3.169 1.74-2.112 2.612-5.268 2.612-9.468 0-4.687-.847-8.06-2.538-10.122-1.689-2.061-3.853-3.092-6.49-3.092-2.562 0-4.706 1.018-6.434 3.055-1.729 2.035-2.593 5.076-2.593 9.121Zm28.809 21.28h-10.026v-5.992c-1.666 2.331-3.63 4.066-5.895 5.204-2.268 1.14-4.552 1.711-6.857 1.711-4.687 0-8.7-1.888-12.042-5.665-3.342-3.778-5.013-9.048-5.013-15.807 0-6.915 1.627-12.171 4.877-15.768 3.254-3.597 7.363-5.397 12.331-5.397 4.557 0 8.501 1.896 11.831 5.685v-20.281h10.794v56.31ZM502.919 138.104c-1.382.461-3.572 1.012-6.568 1.651-2.997.641-4.954 1.268-5.877 1.882-1.408.999-2.113 2.266-2.113 3.803 0 1.512.562 2.817 1.69 3.917 1.127 1.102 2.56 1.654 4.303 1.654 1.945 0 3.803-.642 5.568-1.922 1.308-.972 2.164-2.164 2.575-3.573.281-.921.422-2.675.422-5.261v-2.151Zm-14.442-8.757-9.795-1.768c1.1-3.943 2.996-6.863 5.684-8.758 2.689-1.894 6.684-2.842 11.985-2.842 4.814 0 8.398.57 10.755 1.709 2.356 1.14 4.015 2.587 4.973 4.34.962 1.755 1.442 4.975 1.442 9.661l-.115 12.599c0 3.585.172 6.228.517 7.932.347 1.703.992 3.527 1.94 5.473h-10.677c-.283-.717-.628-1.78-1.037-3.188-.18-.64-.307-1.062-.386-1.268-1.844 1.794-3.814 3.138-5.913 4.034-2.101.896-4.341 1.345-6.723 1.345-4.201 0-7.509-1.14-9.93-3.42-2.419-2.279-3.628-5.159-3.628-8.641 0-2.306.549-4.36 1.65-6.166 1.1-1.805 2.643-3.188 4.63-4.149 1.984-.959 4.844-1.797 8.584-2.515 5.044-.948 8.54-1.83 10.486-2.65v-1.076c0-2.074-.512-3.552-1.536-4.436-1.025-.883-2.958-1.326-5.801-1.326-1.92 0-3.417.379-4.493 1.134-1.075.754-1.947 2.081-2.612 3.976ZM524.161 157.693v-56.31h10.795v56.31h-10.795ZM546.017 157.693v-56.31h10.793v56.31h-10.793ZM567.798 121.395l-2.037-10.487v-9.525h11.754v9.525l-1.768 10.487h-7.949ZM586.578 101.383h11.371v30.498c0 4.84.14 7.976.422 9.411.486 2.304 1.646 4.155 3.478 5.551 1.83 1.394 4.333 2.093 7.508 2.093 3.226 0 5.66-.659 7.298-1.977 1.639-1.32 2.626-2.94 2.958-4.86.333-1.92.5-5.11.5-9.564v-31.152h11.369v29.576c0 6.761-.307 11.537-.921 14.328-.615 2.79-1.748 5.146-3.4 7.066-1.651 1.922-3.862 3.452-6.627 4.592-2.765 1.137-6.375 1.708-10.831 1.708-5.377 0-9.457-.621-12.234-1.861-2.779-1.243-4.974-2.856-6.588-4.84-1.612-1.985-2.676-4.065-3.188-6.243-.743-3.226-1.115-7.989-1.115-14.289v-30.037ZM680.497 157.693h-10.795v-20.818c0-4.404-.231-7.254-.691-8.547-.461-1.292-1.21-2.297-2.248-3.015-1.036-.717-2.285-1.076-3.744-1.076-1.87 0-3.548.512-5.033 1.536-1.484 1.026-2.502 2.382-3.053 4.072-.551 1.691-.826 4.815-.826 9.372v18.476h-10.793v-40.792h10.025v5.992c3.559-4.609 8.041-6.914 13.445-6.914 2.381 0 4.557.429 6.529 1.286 1.972.859 3.464 1.954 4.476 3.284 1.01 1.332 1.714 2.843 2.112 4.534.397 1.689.596 4.109.596 7.26v25.35ZM691.443 157.693v-40.792h10.795v40.792h-10.795Zm0-46.324v-9.986h10.795v9.986h-10.795ZM721.865 137.297c0 4.047.96 7.144 2.881 9.295 1.92 2.151 4.288 3.227 7.107 3.227 2.816 0 5.177-1.076 7.086-3.227 1.908-2.151 2.862-5.275 2.862-9.372 0-3.995-.954-7.068-2.862-9.219-1.909-2.15-4.27-3.226-7.086-3.226-2.819 0-5.187 1.076-7.107 3.226-1.921 2.151-2.881 5.251-2.881 9.296Zm-11.063-.576c0-3.585.885-7.054 2.651-10.409 1.768-3.355 4.27-5.916 7.51-7.683 3.238-1.766 6.856-2.65 10.851-2.65 6.171 0 11.228 2.004 15.172 6.012 3.943 4.008 5.916 9.072 5.916 15.19 0 6.172-1.992 11.287-5.973 15.346-3.983 4.058-8.995 6.089-15.039 6.089-3.739 0-7.305-.846-10.697-2.536-3.394-1.689-5.972-4.168-7.74-7.432-1.766-3.265-2.651-7.241-2.651-11.927ZM798.459 157.693h-10.794v-20.818c0-4.404-.231-7.254-.692-8.547-.46-1.292-1.21-2.297-2.247-3.015-1.036-.717-2.285-1.076-3.745-1.076-1.87 0-3.547.512-5.032 1.536-1.484 1.026-2.503 2.382-3.054 4.072-.55 1.691-.825 4.815-.825 9.372v18.476h-10.793v-40.792h10.025v5.992c3.559-4.609 8.04-6.914 13.444-6.914 2.381 0 4.557.429 6.529 1.286 1.972.859 3.464 1.954 4.475 3.284a11.893 11.893 0 0 1 2.112 4.534c.397 1.689.597 4.109.597 7.26v25.35ZM833.642 133.801c-.076-3.122-.884-5.498-2.42-7.124-1.536-1.626-3.405-2.44-5.607-2.44-2.357 0-4.302.859-5.838 2.574-1.536 1.716-2.293 4.046-2.267 6.99h16.132Zm-.613 10.91 10.755 1.804c-1.383 3.944-3.567 6.946-6.55 9.008-2.984 2.061-6.716 3.093-11.197 3.093-7.094 0-12.343-2.319-15.748-6.953-2.69-3.712-4.034-8.399-4.034-14.059 0-6.76 1.767-12.055 5.3-15.883 3.534-3.828 8.003-5.742 13.407-5.742 6.068 0 10.856 2.004 14.366 6.012 3.508 4.008 5.186 10.146 5.033 18.417h-27.043c.076 3.201.947 5.692 2.612 7.472 1.664 1.78 3.739 2.669 6.221 2.669 1.691 0 3.112-.461 4.266-1.382 1.152-.923 2.021-2.408 2.612-4.456ZM899.25 133.801c-.077-3.122-.885-5.498-2.421-7.124-1.536-1.626-3.405-2.44-5.607-2.44-2.357 0-4.303.859-5.839 2.574-1.536 1.716-2.293 4.046-2.266 6.99h16.133Zm-.615 10.91 10.755 1.804c-1.383 3.944-3.567 6.946-6.549 9.008-2.983 2.061-6.716 3.093-11.198 3.093-7.093 0-12.342-2.319-15.748-6.953-2.689-3.712-4.033-8.399-4.033-14.059 0-6.76 1.767-12.055 5.3-15.883 3.533-3.828 8.003-5.742 13.407-5.742 6.069 0 10.856 2.004 14.365 6.012 3.508 4.008 5.187 10.146 5.033 18.417h-27.042c.076 3.201.946 5.692 2.612 7.472 1.664 1.78 3.739 2.669 6.221 2.669 1.691 0 3.112-.461 4.265-1.382 1.152-.923 2.022-2.408 2.612-4.456ZM945.611 157.693v-6.108c-1.485 2.178-3.437 3.894-5.858 5.148-2.419 1.255-4.974 1.883-7.663 1.883-2.74 0-5.199-.603-7.375-1.807-2.177-1.202-3.75-2.893-4.725-5.07-.972-2.175-1.459-5.184-1.459-9.026v-25.812h10.794v18.744c0 5.736.198 9.252.594 10.544.398 1.294 1.12 2.319 2.171 3.074 1.049.754 2.383 1.133 3.995 1.133 1.844 0 3.497-.505 4.954-1.517 1.462-1.012 2.459-2.267 2.998-3.764.537-1.499.807-5.167.807-11.006v-17.208h10.793v40.792h-10.026ZM977.147 157.693h-10.793v-40.792h10.025v5.8c1.715-2.74 3.259-4.545 4.63-5.416 1.369-.87 2.924-1.306 4.666-1.306 2.459 0 4.827.678 7.106 2.036l-3.342 9.41c-1.818-1.177-3.509-1.766-5.07-1.766-1.511 0-2.791.416-3.84 1.248-1.052.832-1.877 2.337-2.479 4.513-.601 2.177-.903 6.735-.903 13.675v12.598ZM1005.99 137.297c0 4.047.96 7.144 2.89 9.295 1.92 2.151 4.28 3.227 7.1 3.227 2.82 0 5.18-1.076 7.09-3.227 1.91-2.151 2.86-5.275 2.86-9.372 0-3.995-.95-7.068-2.86-9.219-1.91-2.15-4.27-3.226-7.09-3.226-2.82 0-5.18 1.076-7.1 3.226-1.93 2.151-2.89 5.251-2.89 9.296Zm-11.059-.576c0-3.585.884-7.054 2.651-10.409 1.768-3.355 4.268-5.916 7.508-7.683 3.24-1.766 6.86-2.65 10.85-2.65 6.17 0 11.23 2.004 15.18 6.012 3.94 4.008 5.91 9.072 5.91 15.19 0 6.172-1.99 11.287-5.97 15.346-3.98 4.058-9 6.089-15.04 6.089-3.74 0-7.31-.846-10.7-2.536-3.39-1.689-5.97-4.168-7.738-7.432-1.767-3.265-2.651-7.241-2.651-11.927ZM1055.85 136.605c0 4.584.91 7.971 2.73 10.16 1.82 2.191 4.03 3.284 6.65 3.284 2.51 0 4.59-1.004 6.26-3.014 1.66-2.011 2.49-5.307 2.49-9.891 0-4.276-.86-7.452-2.57-9.527-1.72-2.074-3.84-3.11-6.38-3.11-2.63 0-4.82 1.017-6.56 3.053-1.75 2.036-2.62 5.051-2.62 9.045Zm-10.68-19.704h10.07v5.992c1.3-2.048 3.07-3.713 5.3-4.993 2.23-1.28 4.7-1.921 7.41-1.921 4.74 0 8.76 1.857 12.06 5.569 3.31 3.715 4.96 8.887 4.96 15.519 0 6.812-1.67 12.106-4.99 15.884-3.33 3.777-7.37 5.665-12.1 5.665-2.26 0-4.3-.449-6.13-1.345-1.83-.896-3.76-2.432-5.78-4.61v20.551h-10.8v-56.311ZM1117.77 133.801c-.07-3.122-.88-5.498-2.42-7.124-1.53-1.626-3.4-2.44-5.6-2.44-2.36 0-4.31.859-5.84 2.574-1.54 1.716-2.3 4.046-2.27 6.99h16.13Zm-.61 10.91 10.75 1.804c-1.38 3.944-3.56 6.946-6.55 9.008-2.98 2.061-6.71 3.093-11.19 3.093-7.1 0-12.35-2.319-15.75-6.953-2.69-3.712-4.03-8.399-4.03-14.059 0-6.76 1.76-12.055 5.3-15.883 3.53-3.828 8-5.742 13.4-5.742 6.07 0 10.86 2.004 14.37 6.012 3.51 4.008 5.18 10.146 5.03 18.417h-27.04c.07 3.201.95 5.692 2.61 7.472 1.66 1.78 3.74 2.669 6.22 2.669 1.69 0 3.11-.461 4.27-1.382 1.15-.923 2.02-2.408 2.61-4.456ZM1159.8 138.104c-1.39.461-3.58 1.012-6.57 1.651-3 .641-4.96 1.268-5.88 1.882-1.41.999-2.11 2.266-2.11 3.803 0 1.512.56 2.817 1.69 3.917 1.12 1.102 2.56 1.654 4.3 1.654 1.94 0 3.8-.642 5.57-1.922 1.3-.972 2.16-2.164 2.57-3.573.28-.921.43-2.675.43-5.261v-2.151Zm-14.45-8.757-9.79-1.768c1.1-3.943 2.99-6.863 5.68-8.758 2.69-1.894 6.68-2.842 11.99-2.842 4.81 0 8.39.57 10.75 1.709 2.36 1.14 4.02 2.587 4.98 4.34.96 1.755 1.44 4.975 1.44 9.661l-.12 12.599c0 3.585.17 6.228.52 7.932.34 1.703.99 3.527 1.94 5.473h-10.68c-.28-.717-.63-1.78-1.04-3.188-.18-.64-.3-1.062-.38-1.268-1.84 1.794-3.82 3.138-5.92 4.034-2.1.896-4.34 1.345-6.72 1.345-4.2 0-7.51-1.14-9.93-3.42-2.42-2.279-3.63-5.159-3.63-8.641 0-2.306.55-4.36 1.65-6.166 1.11-1.805 2.65-3.188 4.63-4.149 1.99-.959 4.85-1.797 8.59-2.515 5.04-.948 8.54-1.83 10.49-2.65v-1.076c0-2.074-.52-3.552-1.54-4.436-1.03-.883-2.96-1.326-5.8-1.326-1.92 0-3.42.379-4.5 1.134-1.07.754-1.94 2.081-2.61 3.976ZM432.45 254v-48.676h6.607l25.567 38.217v-38.217h6.175V254h-6.607l-25.566-38.25V254h-6.176ZM505.032 242.645l6.176.763c-.974 3.608-2.778 6.408-5.412 8.401-2.635 1.992-5.999 2.988-10.094 2.988-5.158 0-9.253-1.583-12.285-4.748-3.011-3.188-4.516-7.648-4.516-13.381 0-5.932 1.527-10.536 4.582-13.813 3.055-3.276 7.017-4.914 11.887-4.914 4.715 0 8.566 1.605 11.554 4.815 2.989 3.209 4.483 7.725 4.483 13.547 0 .354-.011.885-.033 1.593h-26.297c.221 3.874 1.317 6.84 3.287 8.899 1.97 2.059 4.427 3.088 7.371 3.088 2.191 0 4.062-.576 5.611-1.727 1.55-1.151 2.778-2.988 3.686-5.511Zm-19.623-9.663h19.689c-.265-2.966-1.018-5.19-2.258-6.673-1.903-2.302-4.371-3.454-7.404-3.454-2.745 0-5.058.919-6.939 2.756-1.86 1.838-2.889 4.295-3.088 7.371ZM514.76 254l12.883-18.328-11.92-16.934h7.471l5.412 8.268a103.194 103.194 0 0 1 2.457 3.951c.974-1.461 1.87-2.756 2.69-3.885l5.943-8.334h7.139l-12.186 16.602L547.764 254h-7.338l-7.238-10.957-1.926-2.955L521.999 254h-7.239ZM565.794 248.654l.863 5.28c-1.682.354-3.188.531-4.516.531-2.169 0-3.851-.343-5.047-1.029-1.195-.687-2.036-1.583-2.523-2.69-.487-1.129-.731-3.486-.731-7.072v-20.287h-4.382v-4.649h4.382v-8.732l5.944-3.586v12.318h6.01v4.649h-6.01v20.619c0 1.704.099 2.8.299 3.287.221.487.564.874 1.029 1.162.487.288 1.173.432 2.058.432.665 0 1.539-.078 2.624-.233ZM595.211 234.908v-5.711l20.62-.033v18.063c-3.166 2.523-6.431 4.427-9.795 5.711a29.296 29.296 0 0 1-10.36 1.892c-4.781 0-9.131-1.018-13.048-3.055-3.896-2.058-6.84-5.024-8.833-8.898-1.992-3.874-2.988-8.201-2.988-12.982 0-4.737.985-9.153 2.955-13.249 1.992-4.117 4.848-7.171 8.567-9.164 3.718-1.992 8.002-2.988 12.849-2.988 3.52 0 6.696.576 9.53 1.727 2.855 1.129 5.091 2.711 6.707 4.748 1.615 2.036 2.844 4.692 3.685 7.969l-5.81 1.593c-.731-2.479-1.638-4.427-2.723-5.843-1.085-1.417-2.634-2.546-4.648-3.387-2.015-.863-4.25-1.295-6.708-1.295-2.944 0-5.489.454-7.636 1.361-2.147.886-3.885 2.059-5.213 3.52a17.055 17.055 0 0 0-3.055 4.814c-1.239 3.011-1.859 6.276-1.859 9.795 0 4.339.741 7.969 2.224 10.891 1.506 2.922 3.686 5.091 6.541 6.508a20.21 20.21 0 0 0 9.098 2.125c2.789 0 5.512-.532 8.168-1.594 2.656-1.085 4.671-2.236 6.043-3.453v-9.065h-14.311ZM648.735 242.645l6.176.763c-.974 3.608-2.778 6.408-5.412 8.401-2.635 1.992-5.999 2.988-10.094 2.988-5.158 0-9.253-1.583-12.285-4.748-3.011-3.188-4.516-7.648-4.516-13.381 0-5.932 1.527-10.536 4.582-13.813 3.055-3.276 7.017-4.914 11.887-4.914 4.715 0 8.566 1.605 11.555 4.815 2.988 3.209 4.482 7.725 4.482 13.547 0 .354-.011.885-.033 1.593H628.78c.221 3.874 1.317 6.84 3.287 8.899 1.97 2.059 4.427 3.088 7.371 3.088 2.191 0 4.062-.576 5.611-1.727 1.55-1.151 2.778-2.988 3.686-5.511Zm-19.623-9.663h19.689c-.265-2.966-1.018-5.19-2.257-6.673-1.904-2.302-4.372-3.454-7.405-3.454-2.745 0-5.058.919-6.939 2.756-1.86 1.838-2.889 4.295-3.088 7.371ZM662.448 254v-35.262h5.379v5.014c2.59-3.874 6.33-5.811 11.222-5.811 2.125 0 4.073.388 5.844 1.163 1.793.752 3.132 1.748 4.018 2.988.885 1.239 1.505 2.711 1.859 4.416.221 1.107.332 3.043.332 5.81V254h-5.976v-21.449c0-2.435-.233-4.25-.698-5.446-.465-1.217-1.295-2.18-2.49-2.888-1.173-.731-2.557-1.096-4.15-1.096-2.546 0-4.748.808-6.608 2.424-1.837 1.616-2.756 4.682-2.756 9.197V254h-5.976ZM724.438 242.645l6.176.763c-.974 3.608-2.778 6.408-5.412 8.401-2.634 1.992-5.999 2.988-10.094 2.988-5.158 0-9.253-1.583-12.285-4.748-3.011-3.188-4.516-7.648-4.516-13.381 0-5.932 1.528-10.536 4.582-13.813 3.055-3.276 7.017-4.914 11.887-4.914 4.715 0 8.566 1.605 11.555 4.815 2.988 3.209 4.482 7.725 4.482 13.547 0 .354-.011.885-.033 1.593h-26.297c.221 3.874 1.317 6.84 3.287 8.899 1.97 2.059 4.427 3.088 7.371 3.088 2.192 0 4.062-.576 5.612-1.727 1.549-1.151 2.777-2.988 3.685-5.511Zm-19.623-9.663h19.689c-.265-2.966-1.018-5.19-2.257-6.673-1.904-2.302-4.372-3.454-7.405-3.454-2.744 0-5.058.919-6.939 2.756-1.859 1.838-2.889 4.295-3.088 7.371ZM738.085 254v-35.262h5.378v5.346c1.373-2.501 2.635-4.15 3.786-4.947a6.711 6.711 0 0 1 3.851-1.196c2.014 0 4.062.642 6.143 1.926l-2.059 5.545c-1.461-.863-2.922-1.295-4.383-1.295a5.643 5.643 0 0 0-3.519 1.195c-1.041.775-1.782 1.86-2.225 3.254-.664 2.125-.996 4.45-.996 6.973V254h-5.976ZM783.805 249.65c-2.213 1.882-4.349 3.21-6.408 3.985-2.036.775-4.228 1.162-6.574 1.162-3.874 0-6.851-.941-8.932-2.822-2.081-1.904-3.121-4.328-3.121-7.272 0-1.726.387-3.298 1.162-4.715.797-1.439 1.826-2.59 3.088-3.453 1.284-.863 2.723-1.516 4.316-1.959 1.174-.31 2.944-.609 5.313-.896 4.826-.576 8.378-1.262 10.658-2.059.022-.819.033-1.339.033-1.56 0-2.435-.564-4.151-1.693-5.147-1.527-1.35-3.796-2.025-6.807-2.025-2.811 0-4.892.498-6.242 1.494-1.328.974-2.313 2.711-2.955 5.213l-5.844-.797c.532-2.501 1.406-4.516 2.623-6.043 1.218-1.55 2.978-2.734 5.28-3.553 2.302-.841 4.969-1.262 8.002-1.262 3.01 0 5.456.355 7.338 1.063 1.881.708 3.265 1.605 4.15 2.689.885 1.063 1.505 2.413 1.859 4.051.2 1.018.299 2.856.299 5.512v7.969c0 5.556.122 9.075.365 10.558a13.62 13.62 0 0 0 1.528 4.217h-6.242c-.62-1.24-1.019-2.689-1.196-4.35Zm-.498-13.347c-2.169.885-5.423 1.638-9.762 2.258-2.457.354-4.194.752-5.212 1.195-1.019.443-1.804 1.096-2.358 1.959a5.026 5.026 0 0 0-.83 2.822c0 1.594.598 2.922 1.793 3.984 1.217 1.063 2.988 1.594 5.313 1.594 2.302 0 4.349-.498 6.142-1.494 1.793-1.018 3.11-2.402 3.951-4.15.642-1.351.963-3.343.963-5.977v-2.191ZM811.696 248.654l.863 5.28c-1.682.354-3.187.531-4.515.531-2.17 0-3.852-.343-5.047-1.029-1.196-.687-2.037-1.583-2.524-2.69-.487-1.129-.73-3.486-.73-7.072v-20.287h-4.383v-4.649h4.383v-8.732l5.943-3.586v12.318h6.01v4.649h-6.01v20.619c0 1.704.1 2.8.299 3.287.221.487.564.874 1.029 1.162.487.288 1.173.432 2.059.432.664 0 1.538-.078 2.623-.233ZM817.606 212.197v-6.873h5.977v6.873h-5.977Zm0 41.803v-35.262h5.977V254h-5.977ZM830.489 236.369c0-6.53 1.815-11.366 5.445-14.51 3.033-2.612 6.729-3.918 11.09-3.918 4.848 0 8.81 1.594 11.887 4.782 3.077 3.165 4.615 7.548 4.615 13.148 0 4.538-.686 8.113-2.059 10.725-1.35 2.59-3.331 4.604-5.943 6.043-2.59 1.438-5.423 2.158-8.5 2.158-4.936 0-8.932-1.583-11.986-4.748-3.033-3.166-4.549-7.725-4.549-13.68Zm6.142 0c0 4.516.985 7.902 2.955 10.16 1.971 2.236 4.45 3.354 7.438 3.354 2.966 0 5.434-1.129 7.404-3.387 1.97-2.258 2.955-5.7 2.955-10.326 0-4.361-.996-7.659-2.988-9.895-1.97-2.257-4.427-3.386-7.371-3.386-2.988 0-5.467 1.118-7.438 3.353-1.97 2.236-2.955 5.612-2.955 10.127ZM870.565 254v-35.262h5.379v5.014c2.59-3.874 6.331-5.811 11.223-5.811 2.125 0 4.072.388 5.843 1.163 1.793.752 3.132 1.748 4.018 2.988.885 1.239 1.505 2.711 1.859 4.416.222 1.107.332 3.043.332 5.81V254h-5.976v-21.449c0-2.435-.233-4.25-.698-5.446-.464-1.217-1.295-2.18-2.49-2.888-1.173-.731-2.556-1.096-4.15-1.096-2.546 0-4.748.808-6.608 2.424-1.837 1.616-2.755 4.682-2.755 9.197V254h-5.977ZM909.313 254v-48.676h35.195v5.744h-28.754v14.909h26.928v5.711h-26.928v16.568h29.883V254h-36.324ZM986.477 205.324h6.441v28.123c0 4.892-.553 8.777-1.66 11.655-1.106 2.877-3.11 5.224-6.009 7.039-2.878 1.793-6.663 2.689-11.356 2.689-4.56 0-8.29-.786-11.189-2.357-2.9-1.572-4.97-3.841-6.209-6.807-1.24-2.988-1.86-7.061-1.86-12.219v-28.123h6.442v28.09c0 4.228.387 7.349 1.162 9.363.797 1.993 2.147 3.531 4.051 4.616 1.925 1.084 4.272 1.627 7.039 1.627 4.737 0 8.112-1.074 10.127-3.221 2.014-2.147 3.021-6.276 3.021-12.385v-28.09Z" fill="#fff"/></g><defs><clipPath id="a"><path fill="#fff" d="M0 0h1174v270H0z"/></clipPath></defs></svg>