<svg width="60" height="60" viewBox="0 0 60 60" fill="none" xmlns="http://www.w3.org/2000/svg">
<mask id="mask0_1299_12297" style="mask-type:luminance" maskUnits="userSpaceOnUse" x="4" y="0" width="52" height="60">
<path d="M32.8965 8.40137C34.5605 8.40137 35.9141 9.75772 35.9141 11.4248C35.9139 13.0538 34.6215 14.3865 33.0098 14.4463L32.8965 14.4482H30.7578V16.2314C34.846 16.4158 38.7315 17.7212 42.0586 20.002L42.3203 20.1846L44.0381 18.4629L40.4854 14.9043C40.0925 14.5108 40.0925 13.8721 40.4854 13.4785C41.9625 11.9986 43.9266 11.1836 46.0156 11.1836C48.0373 11.1836 49.9418 11.9474 51.4014 13.3379L51.5459 13.4785L53.2129 15.1484C56.2622 18.2035 56.2621 23.1743 53.2129 26.2295C53.0243 26.4184 52.7687 26.5253 52.502 26.5254C52.2647 26.5254 52.0358 26.4414 51.8555 26.29L51.79 26.2295L48.293 22.7266L46.7207 24.3018C49.8855 28.1926 51.6063 33.0151 51.6064 38.1025C51.6064 43.1116 49.9374 47.8635 46.8652 51.7227L50.7949 58.2334C51.0267 58.6207 51.0771 58.7217 51.0771 58.9854C51.0771 59.2532 50.9706 59.5101 50.7812 59.6992C50.5139 59.9658 50.3223 59.9946 49.7432 59.999L48.54 60L46.5811 59.9932C46.3167 59.992 46.0643 59.8867 45.8779 59.7021L45.8184 59.6377L42.5889 55.8271C38.8806 58.5349 34.4286 59.998 29.752 59.998C25.1771 59.998 20.8172 58.5977 17.1582 56.002L16.915 55.8271L13.6846 59.6377C13.5135 59.8395 13.2706 59.9653 13.0098 59.9893L12.9062 59.9932L10.7471 60L9.75977 59.999C9.18056 59.9946 8.98997 59.9659 8.72266 59.6992C8.53307 59.5101 8.42578 59.2534 8.42578 58.9854C8.42578 58.7594 8.46265 58.6526 8.61914 58.3828L12.6377 51.7227C9.56572 47.8636 7.89746 43.1116 7.89746 38.1025C7.89756 33.1148 9.55149 28.3824 12.5986 24.5322L12.7832 24.3018L11.21 22.7266L7.71289 26.2295C7.52429 26.4184 7.2687 26.5254 7.00195 26.5254C6.73521 26.5254 6.47962 26.4184 6.29102 26.2295C4.814 24.7495 4.00009 22.7822 4 20.6895C4 18.6641 4.76243 16.7552 6.15039 15.293L6.29102 15.1484L7.95801 13.4785C9.43527 11.9987 11.3993 11.1836 13.4883 11.1836C15.5773 11.1837 17.5414 11.9987 19.0186 13.4785C19.3906 13.8513 19.41 14.4439 19.0771 14.8398L19.0186 14.9043L15.4658 18.4629L17.1836 20.1836C20.481 17.8518 24.3466 16.4913 28.4238 16.248L28.7461 16.2314V14.4482H26.6064C24.9426 14.4482 23.589 13.0917 23.5889 11.4248C23.5889 9.79576 24.8815 8.46327 26.4932 8.40332L26.6064 8.40137H32.8965ZM11.208 57.9834L12.4512 57.9795L15.3447 54.5664C14.9875 54.2517 14.6372 53.925 14.2979 53.585C14.2074 53.4944 14.1189 53.4024 14.0303 53.3105L11.208 57.9834ZM45.2051 53.585C44.9505 53.84 44.6907 54.0877 44.4258 54.3281L44.1592 54.5664L47.0527 57.9795L48.2949 57.9834L45.4727 53.3105C45.384 53.4024 45.2955 53.4943 45.2051 53.585ZM29.752 18.2236C18.8109 18.2236 9.90937 27.1411 9.90918 38.1025C9.90918 49.064 18.8107 57.9824 29.752 57.9824C40.693 57.9823 49.5947 49.0641 49.5947 38.1025C49.5945 27.1412 40.6929 18.2238 29.752 18.2236ZM29.752 20.6455C39.3602 20.6457 47.1775 28.4765 47.1777 38.1025C47.1777 47.7288 39.3603 55.5605 29.752 55.5605C25.7969 55.5605 21.9241 54.1964 18.8467 51.7197C15.8159 49.2807 13.6627 45.8604 12.7832 42.0889C12.657 41.5471 12.9925 41.0056 13.5332 40.8789C14.0742 40.7522 14.6157 41.0889 14.7422 41.6309C16.3781 48.6458 22.5503 53.5449 29.752 53.5449C38.251 53.5448 45.165 46.6174 45.165 38.1025C45.1648 29.5879 38.2509 22.6612 29.752 22.6611C22.6177 22.6611 16.4585 27.5038 14.7744 34.4385C14.643 34.9792 14.0991 35.3108 13.5596 35.1797C13.0197 35.0481 12.6881 34.5027 12.8193 33.9619C13.7263 30.2273 15.8882 26.8447 18.9062 24.4375C22.0169 21.9564 25.7676 20.6455 29.752 20.6455ZM22.585 30.9229C22.9572 30.55 23.5491 30.5307 23.9443 30.8643L24.0078 30.9229L28.1006 35.0234C28.5925 34.7576 29.1549 34.6064 29.752 34.6064C31.6763 34.6066 33.242 36.1746 33.2422 38.1025C33.2422 39.6353 32.2526 40.9411 30.8799 41.4121L30.7578 41.4512V50.9629C30.7578 51.5194 30.3074 51.9706 29.752 51.9707C29.2218 51.9707 28.7867 51.5603 28.748 51.0391L28.7461 50.9629V41.4512C27.3104 41.0174 26.2607 39.6804 26.2607 38.1025C26.2608 37.5588 26.3864 37.0434 26.6084 36.584L26.6777 36.4482L22.585 32.3486C22.1922 31.955 22.1922 31.3164 22.585 30.9229ZM41.0898 40.8516C41.3544 40.8516 41.6147 40.96 41.8018 41.1475C41.9886 41.3348 42.0966 41.5946 42.0967 41.8594C42.0967 42.1244 41.9888 42.3848 41.8018 42.5723C41.6147 42.7597 41.3544 42.8672 41.0898 42.8672C40.8255 42.8671 40.5659 42.7596 40.3789 42.5723C40.1919 42.3848 40.084 42.1244 40.084 41.8594C40.0841 41.5946 40.192 41.3348 40.3789 41.1475C40.5659 40.9601 40.8255 40.8517 41.0898 40.8516ZM29.752 36.6211C28.9368 36.6211 28.2736 37.2859 28.2734 38.1025C28.2734 38.9193 28.9367 39.584 29.752 39.584C30.5671 39.5838 31.2305 38.9192 31.2305 38.1025C31.2303 37.286 30.567 36.6213 29.752 36.6211ZM13.332 37.0947C13.5966 37.0948 13.8559 37.2032 14.043 37.3906C14.2299 37.578 14.3378 37.8376 14.3379 38.1025C14.3379 38.3676 14.2301 38.628 14.043 38.8154C13.856 39.0027 13.5965 39.1103 13.332 39.1104C13.0676 39.1104 12.8082 39.0027 12.6211 38.8154C12.434 38.628 12.3262 38.3676 12.3262 38.1025C12.3262 37.8376 12.4341 37.578 12.6211 37.3906C12.8082 37.2032 13.0675 37.0947 13.332 37.0947ZM38.501 30.8066C38.9575 30.4894 39.5847 30.6032 39.9014 31.0605C41.3375 33.1345 42.0966 35.5696 42.0967 38.1025C42.0967 38.6591 41.6463 39.1102 41.0908 39.1104C40.5353 39.1104 40.085 38.6591 40.085 38.1025C40.0849 35.9823 39.4493 33.9449 38.248 32.21C37.9314 31.7526 38.0445 31.1239 38.501 30.8066ZM13.4883 13.2021C12.0579 13.2021 10.6273 13.7265 9.5127 14.7754L9.37988 14.9043L7.71289 16.5742C6.6159 17.6735 6.01172 19.1351 6.01172 20.6895C6.01178 21.8351 6.34025 22.9304 6.95215 23.8672L7.06348 24.0303L16.8223 14.2529C15.8258 13.5524 14.6571 13.2022 13.4883 13.2021ZM46.0156 13.1992C44.872 13.1993 43.7789 13.5285 42.8438 14.1416L42.6807 14.252L52.4404 24.0303C53.9998 21.8039 53.8207 18.7187 51.9033 16.6895L51.79 16.5742L50.123 14.9043C49.0259 13.805 47.5673 13.1992 46.0156 13.1992ZM12.6328 21.3008L14.127 22.7969L14.2979 22.6211C14.609 22.3093 14.9285 22.0079 15.2549 21.7178L15.584 21.4316L14.043 19.8877L12.6328 21.3008ZM43.9199 21.4316C44.3611 21.8093 44.7902 22.2055 45.2051 22.6211L45.377 22.7969L46.8711 21.3008L45.4609 19.8877L43.9199 21.4316ZM26.6064 10.417C26.0518 10.4171 25.6006 10.8692 25.6006 11.4248C25.6007 11.955 26.0117 12.391 26.5312 12.4297L26.6064 12.4326H32.8965C33.4511 12.4326 33.9022 11.9804 33.9023 11.4248C33.9023 10.8944 33.4914 10.4585 32.9717 10.4199L32.8965 10.417H26.6064ZM42.7588 5.0459C43.3021 5.04594 43.6011 5.67977 43.2568 6.10156L41.0078 8.85254H42.7588C43.1143 8.85257 43.4023 9.14219 43.4023 9.49902C43.4023 9.85592 43.1143 10.1455 42.7588 10.1455H39.6475C39.104 10.1455 38.8047 9.51067 39.1494 9.08887L41.3975 6.33789H39.6475C39.2921 6.33789 39.0042 6.04908 39.0039 5.69238C39.0039 5.33547 39.2919 5.0459 39.6475 5.0459H42.7588ZM47.6045 2.43555C48.148 2.43555 48.4473 3.07038 48.1025 3.49219L45.8545 6.24316H47.6045C47.96 6.24316 48.249 6.53274 48.249 6.88965C48.2488 7.2464 47.9599 7.53516 47.6045 7.53516H44.4932C43.9499 7.53503 43.6508 6.90126 43.9951 6.47949L46.2441 3.72852H44.4932C44.1377 3.72843 43.8496 3.43889 43.8496 3.08203C43.8496 2.7252 44.1377 2.43564 44.4932 2.43555H47.6045ZM52.4766 0C53.0199 0 53.3188 0.633857 52.9746 1.05566L50.7266 3.80762H52.4766C52.832 3.80762 53.1199 4.09637 53.1201 4.45312C53.1201 4.81004 52.8321 5.09961 52.4766 5.09961H49.3652C48.8219 5.0996 48.5229 4.46575 48.8672 4.04395L51.1162 1.29297H49.3652C49.0098 1.29296 48.7218 1.00328 48.7217 0.646484C48.7217 0.289577 49.0097 6.03941e-06 49.3652 0H52.4766Z" fill="white"/>
</mask>
<g mask="url(#mask0_1299_12297)">
<rect x="-6.59619" y="-3.20312" width="75" height="67" fill="#00C5CA"/>
</g>
</svg>
