<svg width="64" height="64" viewBox="0 0 64 64" fill="none" xmlns="http://www.w3.org/2000/svg">
<mask id="mask0_503_6277" style="mask-type:luminance" maskUnits="userSpaceOnUse" x="0" y="0" width="64" height="64">
<path fill-rule="evenodd" clip-rule="evenodd" d="M55.3514 3.2H62.8025C63.3903 3.2 63.8669 3.6776 63.8669 4.26667V8.53333C63.8669 9.12292 63.3903 9.6 62.8025 9.6H55.3514V10.6667C55.3514 11.2563 54.8747 11.7333 54.2869 11.7333H52.158V61.8667H54.0525C53.3035 61.0474 53.0374 59.8943 53.3514 58.8281C53.6648 57.7625 54.5125 56.9385 55.5858 56.6573C55.0447 55.3203 55.4626 53.7865 56.6071 52.9109C57.751 52.0354 59.3384 52.0354 60.4823 52.9109C61.6268 53.7865 62.0447 55.3203 61.5036 56.6573C62.5769 56.9385 63.4246 57.7625 63.738 58.8281C64.052 59.8943 63.7859 61.0474 63.0369 61.8667H63.8669V64H0V61.8667H0.623701L5.6341 56.8464C6.0499 56.4297 6.72349 56.4297 7.13929 56.8464L12.1497 61.8667H13.8378V13.8667H15.9667V18.1333H29.8046V20.2667H15.9667V23.4667H22.3534V22.4H24.4823V23.4667H30.869V21.3333H32.9979V23.4667H39.3846V19.2H41.5135V61.8667H45.7713V11.7333H43.6424C43.0546 11.7333 42.578 11.2563 42.578 10.6667V9.6H6.38669V28.9828C7.38981 29.3333 8.15177 30.1635 8.4158 31.1948C8.68035 32.226 8.41216 33.3219 7.70114 34.1135L10.4314 37.7604L10.4179 37.7708C10.5603 37.95 10.6398 38.1714 10.6445 38.4V42.6667C10.6445 42.95 10.5322 43.2208 10.3326 43.4208L8.20374 45.5542C8.00416 45.7542 7.73337 45.8667 7.45114 45.8667H3.19335C2.91112 45.8667 2.64033 45.7542 2.44075 45.5542L0.31185 43.4208C0.112266 43.2208 0 42.95 0 42.6667V38.4C0.00467775 38.1714 0.0841995 37.95 0.226611 37.7708L0.213098 37.7604L2.94335 34.1135C2.42152 33.5333 2.13202 32.7807 2.1289 32H4.2578C4.2578 32.5896 4.73441 33.0667 5.32225 33.0667C5.91008 33.0667 6.38669 32.5896 6.38669 32C6.38669 31.4109 5.91008 30.9333 5.32225 30.9333C4.73441 30.9333 4.2578 30.4563 4.2578 29.8667V9.6H1.06445C0.476611 9.6 0 9.12292 0 8.53333V4.26667C0 3.6776 0.476611 3.2 1.06445 3.2H42.578V1.06667C42.578 0.477604 43.0546 0 43.6424 0H54.2869C54.8747 0 55.3514 0.477604 55.3514 1.06667V3.2ZM7.45114 37.3333L5.85447 35.2H4.79002L3.19335 37.3333H7.45114ZM8.51559 42.2255L7.0104 43.7333H3.6341L2.1289 42.2255V39.4667H8.51559V42.2255ZM55.3514 7.25365L58.2256 5.33333H55.3514V7.25365ZM44.7069 2.13333H48.9647V6.4H44.7069V2.13333ZM18.841 7.46667L15.9667 5.54688L13.0925 7.46667H18.841ZM9.58004 7.25365L6.70582 5.33333H12.4543L9.58004 7.25365ZM22.3534 7.25365L25.2276 5.33333H19.4792L22.3534 7.25365ZM28.7401 5.54688L31.6143 7.46667H25.8659L28.7401 5.54688ZM35.1268 7.25365L38.001 5.33333H32.2526L35.1268 7.25365ZM2.1289 5.33333H2.87422L6.06757 7.46667H2.1289V5.33333ZM41.8326 5.33333L38.6393 7.46667H42.578V5.33333H41.8326ZM50.0291 58.3469L48.1133 55.4667L50.0291 52.587V58.3469ZM48.1133 29.8667L50.0291 32.7469V26.987L48.1133 29.8667ZM47.9002 33.387L49.816 36.2667L47.9002 39.1469V33.387ZM47.9002 20.587V26.3469L49.816 23.4667L47.9002 20.587ZM47.9002 46.187L49.816 49.0667L47.9002 51.9469V46.187ZM48.1133 42.6667L50.0291 45.5406V39.787L48.1133 42.6667ZM48.1133 17.0667L50.0291 14.187V19.9469L48.1133 17.0667ZM47.9002 11.7333V13.5469L49.105 11.7333H47.9002ZM39.3846 25.6V36.2667H32.9979V25.6H39.3846ZM30.869 34.7734V25.6H24.4823V32.0406H27.6757C27.9548 32.0417 28.2225 32.1526 28.421 32.349L30.869 34.7734ZM22.3534 25.6V27.3781H15.9667V25.6H22.3534ZM9.13929 61.8667L6.38669 59.1083L3.6341 61.8667H9.13929ZM15.9667 61.8667V29.5115H22.3534V33.1115C22.3534 33.701 22.83 34.1781 23.4179 34.1781H27.238L31.1882 38.0922C31.3867 38.2885 31.6544 38.3995 31.9335 38.4H39.3846V61.8667H15.9667ZM49.816 61.8667L47.9002 58.987V61.8667H49.816ZM60.6736 60.8C60.0858 60.8 59.6091 60.3229 59.6091 59.7333C59.6091 59.1443 60.0858 58.6667 60.6736 58.6667C61.2614 58.6667 61.738 59.1443 61.738 59.7333C61.738 60.3229 61.2614 60.8 60.6736 60.8ZM59.6091 55.4667C59.6091 54.8776 59.1325 54.4 58.5447 54.4C57.9569 54.4 57.4802 54.8776 57.4802 55.4667C57.4802 56.0563 57.9569 56.5333 58.5447 56.5333C59.1325 56.5333 59.6091 56.0563 59.6091 55.4667ZM56.4158 58.6667C57.0036 58.6667 57.4802 59.1443 57.4802 59.7333C57.4802 60.3229 57.0036 60.8 56.4158 60.8C55.828 60.8 55.3514 60.3229 55.3514 59.7333C55.3514 59.1443 55.828 58.6667 56.4158 58.6667ZM44.7069 8.53333V9.6H53.2225V2.13333H51.0936V7.46667C51.0936 8.05625 50.6169 8.53333 50.0291 8.53333H44.7069ZM58.8638 7.46667L61.738 5.54688V7.46667H58.8638ZM18.0956 36.2667H20.2245V38.4H18.0956V36.2667ZM22.3534 38.4V36.2667H24.4823V38.4H22.3534ZM28.7401 36.2667H26.6112V38.4H28.7401V36.2667ZM18.0956 40.5333H20.2245V42.6667H18.0956V40.5333ZM24.4823 42.6667V40.5333H22.3534V42.6667H24.4823ZM26.6112 40.5333H28.7401V42.6667H26.6112V40.5333ZM32.9979 42.6667V40.5333H30.869V42.6667H32.9979ZM35.1268 40.5333H37.2557V42.6667H35.1268V40.5333ZM20.2245 44.8H18.0956V46.9333H20.2245V44.8ZM28.7401 44.8H26.6112V46.9333H28.7401V44.8ZM37.2557 44.8H35.1268V46.9333H37.2557V44.8ZM22.3534 44.8H24.4823V46.9333H22.3534V44.8ZM18.0956 49.0667H20.2245V51.2H18.0956V49.0667ZM30.869 44.8H32.9979V46.9333H30.869V44.8ZM24.4823 51.2V49.0667H22.3534V51.2H24.4823ZM26.6112 49.0667H28.7401V51.2H26.6112V49.0667ZM32.9979 51.2V49.0667H30.869V51.2H32.9979ZM35.1268 49.0667H37.2557V51.2H35.1268V49.0667ZM20.2245 53.3333H18.0956V55.4667H20.2245V53.3333ZM22.3534 53.3333H24.4823V55.4667H22.3534V53.3333ZM28.7401 53.3333H26.6112V55.4667H28.7401V53.3333ZM30.869 53.3333H32.9979V55.4667H30.869V53.3333ZM37.2557 53.3333H35.1268V55.4667H37.2557V53.3333ZM18.0956 57.6H20.2245V59.7333H18.0956V57.6ZM24.4823 59.7333V57.6H22.3534V59.7333H24.4823ZM26.6112 57.6H28.7401V59.7333H26.6112V57.6ZM32.9979 59.7333V57.6H30.869V59.7333H32.9979ZM35.1268 57.6H37.2557V59.7333H35.1268V57.6Z" fill="white"/>
</mask>
<g mask="url(#mask0_503_6277)">
<rect x="-2.71655" y="-1.84644" width="70.4" height="69.3333" fill="#00C5CA"/>
</g>
</svg>
