<svg fill="none" xmlns="http://www.w3.org/2000/svg" viewBox="0 0 120 120">
  <g fill="#000">
    <path d="M53.659 79.217H37.62a2.163 2.163 0 0 0-2.165 2.154c0 1.187.971 2.154 2.165 2.154h16.038a2.163 2.163 0 0 0 2.165-2.154 2.163 2.163 0 0 0-2.165-2.154ZM53.659 86.717H37.62a2.163 2.163 0 0 0-2.165 2.154c0 1.187.971 2.154 2.165 2.154h16.038a2.163 2.163 0 0 0 2.165-2.154 2.163 2.163 0 0 0-2.165-2.154Z" />
    <path d="M115.639 70.873c-2.439 0-5.364-1.745-8.751-3.767-3.582-2.137-7.631-4.554-12.086-5.437V49.845c0-1.194-.94-2.194-2.098-2.228a2.17 2.17 0 0 0-1.573.608c-.424.41-.657.957-.657 1.546v15.863c0 2.013-1.645 3.65-3.668 3.65h-5.767a6.536 6.536 0 0 0-4.623 1.938c-1.193 1.206-1.833 2.78-1.807 4.434.058 3.396 2.882 6.158 6.296 6.158h8.68c.305 0 .603.043.89.129v15.485a3.278 3.278 0 0 1-3.284 3.267H32.61a3.278 3.278 0 0 1-3.284-3.267v-30.52c2.735.191 7.944.162 12.165.138 3.289 0 5.964-2.66 5.964-5.932 0-.998-.253-1.974-.731-2.843a5.924 5.924 0 0 0 2.35-4.717c0-.962-.236-1.907-.683-2.754a5.904 5.904 0 0 0 2.468-4.805c0-1.336-.45-2.625-1.273-3.666a5.907 5.907 0 0 0 1.458-3.894c0-3.271-2.675-5.935-5.963-5.935H30.588a1.261 1.261 0 0 1-1.263-1.258V22.576a3.278 3.278 0 0 1 3.284-3.266h40.647v9.55c0 4.176 3.416 7.575 7.614 7.575h9.603v4.87c0 1.194.94 2.194 2.098 2.227a2.16 2.16 0 0 0 1.573-.608c.424-.409.657-.957.657-1.545v-5.68a5.61 5.61 0 0 0-1.643-3.948L77.963 16.634A5.67 5.67 0 0 0 73.993 15H32.61c-4.198 0-7.614 3.398-7.614 7.574v4.396c-4.537.861-8.564 3.331-12.126 5.516-3.277 2.01-6.106 3.745-8.51 3.745H4v4.308h.36c4.504 0 8.622-2.568 12.606-5.05 2.771-1.727 5.396-3.362 8.035-4.094.082 2.998 2.557 5.413 5.59 5.415h14.494c.89 0 1.624.723 1.634 1.632v.024a1.637 1.637 0 0 1-1.629 1.608c-.075-.01-.161-.01-2.644-.01h-11.6a2.163 2.163 0 0 0-2.165 2.154c0 1.187.972 2.154 2.165 2.154h4.246c4.08 0 9.669 0 9.887.007.45.022.86.218 1.155.553.294.335.435.766.395 1.213-.073.83-.816 1.48-1.692 1.48H30.923c-1.2 0-2.205.935-2.24 2.086-.016.589.2 1.144.612 1.565.411.421.962.653 1.554.653h12.196c.898 0 1.643.666 1.701 1.515.031.455-.125.888-.438 1.22a1.623 1.623 0 0 1-1.193.518H30.923c-1.2 0-2.205.935-2.24 2.086-.016.589.2 1.144.612 1.565.411.422.962.654 1.554.654h10.577c.898 0 1.643.665 1.701 1.514.031.455-.125.888-.438 1.22a1.623 1.623 0 0 1-1.195.518l-1.677.012c-8.75.062-12.023.084-16.411-1.395-4.739-1.74-18.4-4.083-18.98-4.183l-.06.354-.06.354.06.01v3.584c1.51 0 12.41 1.984 17.49 3.903.034.015.07.027.104.039 1.032.349 2.03.631 3.043.859V97.43c0 4.176 3.416 7.574 7.614 7.574h54.578a7.61 7.61 0 0 0 6.645-3.882c2.824-.543 4.496-1.237 6.427-2.041l.83-.342a31.23 31.23 0 0 0 3.231-1.563c3.421-1.886 10.296-2.35 10.363-2.355l.323-.021.173-3.774-.397.02c-7.431.368-13.096 2.83-13.147 2.854-.045.02-4.344 1.852-6.832 2.57v-9.957a8.504 8.504 0 0 0 5.13 1.747h.016c1.119 0 2.083-.84 2.199-1.92a2.168 2.168 0 0 0-.541-1.675 2.175 2.175 0 0 0-1.61-.713c-1.614 0-3.062-.9-3.774-2.35-1.225-2.489-3.83-4.097-6.637-4.097h-8.598c-1.078 0-1.975-.799-2.045-1.82a1.93 1.93 0 0 1 .527-1.47 1.96 1.96 0 0 1 1.436-.622h5.901c4.253 0 7.742-3.32 7.987-7.49 2.54.732 5.15 2.314 7.907 3.986 4.13 2.503 8.403 5.095 12.942 5.095h.361v-4.307h-.361l-.012-.005ZM77.587 28.86v-6.506l9.825 9.773H80.87a3.278 3.278 0 0 1-3.284-3.267Z" />
  </g>
</svg>
