<svg width="90" height="71" fill="none" xmlns="http://www.w3.org/2000/svg"><path d="M49 0v11.388l.337-.3A24.406 24.406 0 0 1 65.5 5C79.031 5 90 15.969 90 29.5S79.031 54 65.5 54A24.411 24.411 0 0 1 49 47.611v6.498c0 6.24-2.496 12.105-6.876 16.567L41.8 71l-5.6-5.724c2.976-2.924 4.687-6.718 4.795-10.761l.005-.406v-6.401a24.384 24.384 0 0 1-16.5 6.401C10.969 54.11 0 43.12 0 29.56 0 16.002 10.969 5.01 24.5 5.01A24.384 24.384 0 0 1 41 11.412V0h8ZM24.5 13.026C15.387 13.026 8 20.43 8 29.56s7.387 16.533 16.5 16.533S41 38.691 41 29.56s-7.387-16.534-16.5-16.534Zm41-.026C56.387 13 49 20.387 49 29.5S56.387 46 65.5 46 82 38.613 82 29.5 74.613 13 65.5 13Z" fill="#000"/></svg>