<svg width="158" height="158" fill="none" xmlns="http://www.w3.org/2000/svg"><path d="M79 158c43.63 0 79-35.37 79-79S122.63 0 79 0 0 35.37 0 79s35.37 79 79 79Z" fill="#fff"/><path d="M83 49v11.388l.337-.3A24.406 24.406 0 0 1 99.5 54c13.531 0 24.5 10.969 24.5 24.5S113.031 103 99.5 103A24.41 24.41 0 0 1 83 96.611v6.499c0 6.239-2.496 12.104-6.876 16.566L75.8 120l-5.6-5.724c2.976-2.924 4.687-6.718 4.795-10.761l.005-.405v-6.403a24.382 24.382 0 0 1-16.5 6.403c-13.531 0-24.5-10.992-24.5-24.55C34 65 44.969 54.01 58.5 54.01A24.384 24.384 0 0 1 75 60.412V49h8ZM58.5 62.026c-9.113 0-16.5 7.403-16.5 16.534s7.387 16.533 16.5 16.533S75 87.691 75 78.56s-7.387-16.534-16.5-16.534Zm41-.026C90.387 62 83 69.387 83 78.5S90.387 95 99.5 95 116 87.613 116 78.5 108.613 62 99.5 62Z" fill="#000"/></svg>