<svg width="254" height="71" viewBox="0 0 254 71" fill="none" xmlns="http://www.w3.org/2000/svg">
<path d="M254 5V54H246L246 47.6109C241.646 51.5799 235.856 54 229.5 54C221.688 54 214.73 50.3436 210.244 44.6488C212.088 42.0099 213.462 39.0199 214.247 35.7994C216.721 41.7872 222.619 46 229.5 46C238.613 46 246 38.6127 246 29.5C246 20.3873 238.613 13 229.5 13C222.619 13 216.721 17.2128 214.246 23.2001C213.461 19.9801 212.088 16.9901 210.246 14.3511C214.73 8.65641 221.688 5 229.5 5C235.856 5 241.646 7.42011 246 11.3891L246 5H254Z" fill="white"/>
<path d="M7.9999 5L7.99982 11.3891C12.3537 7.42011 18.1441 5 24.4997 5C32.3113 5 39.2691 8.65599 43.7553 14.3503C41.9126 16.9894 40.5386 19.9797 39.7533 23.2006C37.2788 17.2128 31.3812 13 24.4997 13C15.3871 13 7.9999 20.3873 7.9999 29.5C7.9999 38.6127 15.3871 46 24.4997 46C31.3812 46 37.2788 41.7872 39.7542 35.7999C40.5386 39.0203 41.9126 42.0106 43.7548 44.6499C39.2691 50.344 32.3113 54 24.4997 54C18.1441 54 12.3537 51.5799 7.99982 47.6109L7.9999 68H0V5H7.9999Z" fill="white"/>
<path d="M89.9991 5V8.76319C85.4803 12.3635 82.165 17.4097 80.753 23.2016C78.2792 17.2133 72.3814 13 65.4995 13C56.387 13 48.9998 20.3873 48.9998 29.5C48.9998 38.6127 56.387 46 65.4995 46C72.3814 46 78.2792 41.7867 80.7543 35.7989C82.165 41.5903 85.4803 46.6365 89.9991 50.2368V54H81.9992L81.9993 47.6109C77.6455 51.5799 71.8551 54 65.4995 54C51.9688 54 41 43.031 41 29.5C41 15.969 51.9688 5 65.4995 5C71.8551 5 77.6455 7.42011 81.9993 11.3891L81.9992 5H89.9991Z" fill="white"/>
<path d="M172 5L172.001 11.3882C176.355 7.41975 182.145 5 188.5 5C202.031 5 213 15.969 213 29.5C213 43.031 202.031 54 188.5 54C182.145 54 176.355 51.5803 172.001 47.6118L172 68H164L164.001 50.2371C168.519 46.637 171.835 41.591 173.247 35.7994C175.721 41.7872 181.618 46 188.5 46C197.613 46 205 38.6127 205 29.5C205 20.3873 197.613 13 188.5 13C181.618 13 175.721 17.2128 173.245 23.2001C171.835 17.409 168.519 12.363 164.001 8.76289L164 5H172Z" fill="white"/>
<path d="M131 0V11.3891C135.354 7.4201 141.144 5 147.5 5C161.031 5 172 15.969 172 29.5C172 43.031 161.031 54 147.5 54C141.144 54 135.354 51.5799 131 47.6109V54.1095C131 60.3494 128.504 66.2142 124.124 70.676L123.8 71L118.2 65.2758C121.176 62.3523 122.887 58.5578 122.995 54.5146L123 54.1095L123 47.7075C118.646 51.6845 112.856 54.1095 106.5 54.1095C92.969 54.1095 82 43.1183 82 29.5598C82 16.0014 92.969 5.01014 106.5 5.01014C112.856 5.01014 118.646 7.43516 123 11.4122L123 0H131ZM106.5 13.0264C97.3873 13.0264 90 20.4287 90 29.5598C90 38.691 97.3873 46.0933 106.5 46.0933C115.613 46.0933 123 38.691 123 29.5598C123 20.4287 115.613 13.0264 106.5 13.0264ZM147.5 13C138.387 13 131 20.3873 131 29.5C131 38.6127 138.387 46 147.5 46C156.613 46 164 38.6127 164 29.5C164 20.3873 156.613 13 147.5 13Z" fill="white"/>
</svg>
